<svg width="73" height="73" viewBox="0 0 73 73" fill="none" xmlns="http://www.w3.org/2000/svg">
<path fill-rule="evenodd" clip-rule="evenodd" d="M0.358814 -0.00320435H71.6713C71.8696 -0.00320435 72.03 0.155218 72.03 0.350643V71.673C72.03 71.8685 71.8696 72.0268 71.6713 72.0268H0.358814C0.160647 72.0268 0 71.8685 0 71.673V0.350643C0 0.155218 0.160647 -0.00320435 0.358814 -0.00320435Z" fill="#18181E"/>
<path fill-rule="evenodd" clip-rule="evenodd" d="M14.4504 49.0633C13.154 49.0633 12.0453 48.6027 11.1241 47.6816C10.203 46.7604 9.74243 45.6517 9.74243 44.3553V29.2079C9.74243 27.8888 10.203 26.7743 11.1241 25.8645C12.0453 24.9548 13.154 24.4999 14.4504 24.4999H30.1778V28.9691H15.4056C14.7688 28.9691 14.4106 29.0089 14.331 29.0885C14.2514 29.1681 14.2116 29.5263 14.2116 30.1631V33.063C14.2116 33.6998 14.2514 34.058 14.331 34.1376C14.4106 34.2172 14.7688 34.257 15.4056 34.257H29.359C30.6554 34.257 31.7641 34.7175 32.6853 35.6387C33.6064 36.5599 34.067 37.6686 34.067 38.965V44.3553C34.067 45.6517 33.6064 46.7604 32.6853 47.6816C31.7641 48.6027 30.6554 49.0633 29.359 49.0633H14.4504ZM15.4056 44.5941H28.4038C29.0406 44.5941 29.3988 44.5543 29.4784 44.4747C29.558 44.3951 29.5978 44.0369 29.5978 43.4V39.9544C29.5978 39.3175 29.558 38.9593 29.4784 38.8797C29.3988 38.8001 29.0406 38.7603 28.4038 38.7603H14.2116V43.4C14.2116 44.0369 14.2514 44.3951 14.331 44.4747C14.4106 44.5543 14.7688 44.5941 15.4056 44.5941Z" fill="white"/>
<path fill-rule="evenodd" clip-rule="evenodd" d="M42.4289 49.0633C41.1325 49.0633 40.0238 48.5629 39.1026 47.5622C38.1815 46.5614 37.7209 45.4243 37.7209 44.1506V29.3102C37.7209 27.9911 38.1815 26.8596 39.1026 25.9157C40.0238 24.9718 41.1325 24.4999 42.4289 24.4999H57.3375C58.6339 24.4999 59.7426 24.9718 60.6638 25.9157C61.585 26.8596 62.0455 27.9911 62.0455 29.3102V44.1506C62.0455 45.4243 61.585 46.5614 60.6638 47.5622C59.7426 48.5629 58.6339 49.0633 57.3375 49.0633H42.4289ZM44.2371 44.3553H56.3823C57.0191 44.3553 57.3773 44.3155 57.4569 44.2358C57.5365 44.1563 57.5763 43.798 57.5763 43.1612V33.2335L44.2371 44.3553ZM42.1901 40.1932L55.5294 29.0714H43.3842C42.7474 29.0714 42.3891 29.1112 42.3095 29.1909C42.2299 29.2704 42.1901 29.6287 42.1901 30.2655V40.1932Z" fill="white"/>
<path fill-rule="evenodd" clip-rule="evenodd" d="M65.0398 27.314C65.0398 25.8383 66.236 24.6421 67.7117 24.6421C69.1873 24.6421 70.3833 25.8383 70.3833 27.314C70.3833 28.7897 69.1873 29.9859 67.7117 29.9859C66.236 29.9859 65.0398 28.7897 65.0398 27.314Z" fill="white"/>
</svg>
