<?xml version="1.0" encoding="UTF-8" standalone="no"?> <!-- Created with Vectornator for iOS (http://vectornator.io/) --><!DOCTYPE svg PUBLIC "-//W3C//DTD SVG 1.1//EN" "http://www.w3.org/Graphics/SVG/1.1/DTD/svg11.dtd">
<svg height="100%" style="fill-rule:evenodd;clip-rule:evenodd;stroke-linecap:round;stroke-linejoin:round;" xmlns:xlink="http://www.w3.org/1999/xlink" xmlns="http://www.w3.org/2000/svg" xml:space="preserve" width="100%" xmlns:vectornator="http://vectornator.io" version="1.1" viewBox="0 0 1024 1024">
<metadata>
<vectornator:setting key="DimensionsVisible" value="1"/>
<vectornator:setting key="PencilOnly" value="0"/>
<vectornator:setting key="SnapToPoints" value="0"/>
<vectornator:setting key="OutlineMode" value="0"/>
<vectornator:setting key="CMYKEnabledKey" value="0"/>
<vectornator:setting key="RulersVisible" value="1"/>
<vectornator:setting key="SnapToEdges" value="0"/>
<vectornator:setting key="GuidesVisible" value="1"/>
<vectornator:setting key="DisplayWhiteBackground" value="0"/>
<vectornator:setting key="doHistoryDisabled" value="0"/>
<vectornator:setting key="SnapToGuides" value="1"/>
<vectornator:setting key="TimeLapseWatermarkDisabled" value="0"/>
<vectornator:setting key="Units" value="Pixels"/>
<vectornator:setting key="DynamicGuides" value="1"/>
<vectornator:setting key="IsolateActiveLayer" value="0"/>
<vectornator:setting key="SnapToGrid" value="0"/>
</metadata>
<defs/>
<g id="Layer 1" vectornator:layerName="Layer 1">
<path d="M-5.05029e-06+327.435L564.081+327.435L1024+327.435L1024+696.565L-5.05029e-06+696.565L-5.05029e-06+327.435Z" opacity="1" fill="#18181e"/>
<g opacity="1">
<path d="M252.007+558.423L252.007+482.267C252.007+477.286+253.799+473.004+257.382+469.422C260.964+465.839+265.246+464.047+270.227+464.047L328.032+464.047C333.101+464.047+337.426+465.839+341.009+469.422C344.592+473.004+346.383+477.286+346.383+482.267L346.383+558.423L328.95+558.423L328.95+526.703L269.31+526.703L269.31+558.423L252.007+558.423ZM269.31+509.4L328.95+509.4L328.95+486.068C328.95+483.622+328.775+482.245+328.426+481.94C328.076+481.634+326.722+481.481+324.362+481.481L273.897+481.481C271.451+481.481+270.074+481.634+269.768+481.94C269.463+482.245+269.31+483.622+269.31+486.068L269.31+509.4Z" opacity="1" fill="#ffffff"/>
<path d="M361.719+558.423L361.719+464.047L434.074+464.047C439.055+464.047+443.337+465.839+446.92+469.422C450.503+473.004+452.294+477.286+452.294+482.267L452.294+500.749C452.294+501.885+452.207+502.977+452.032+504.026C451.857+505.075+451.551+506.08+451.114+507.041C452.6+509.051+453.802+511.148+454.719+513.333C455.637+515.517+456.095+517.702+456.095+519.887L456.095+540.204C456.095+545.184+454.304+549.466+450.721+553.049C447.138+556.632+442.813+558.423+437.744+558.423L361.719+558.423ZM383.609+540.99L434.074+540.99C436.434+540.99+437.788+540.837+438.138+540.531C438.487+540.225+438.662+538.849+438.662+536.402L438.662+523.688C438.662+521.241+438.487+519.865+438.138+519.559C437.788+519.253+436.434+519.1+434.074+519.1L383.609+519.1C381.163+519.1+379.786+519.253+379.48+519.559C379.175+519.865+379.022+521.241+379.022+523.688L379.022+536.402C379.022+538.849+379.175+540.225+379.48+540.531C379.786+540.837+381.163+540.99+383.609+540.99ZM383.609+501.667L430.273+501.667C432.72+501.667+434.074+501.514+434.336+501.208C434.599+500.902+434.73+499.526+434.73+497.079L434.73+486.068C434.73+483.622+434.599+482.245+434.336+481.94C434.074+481.634+432.72+481.481+430.273+481.481L383.609+481.481C381.163+481.481+379.786+481.634+379.48+481.94C379.175+482.245+379.022+483.622+379.022+486.068L379.022+497.079C379.022+499.526+379.175+500.902+379.48+501.208C379.786+501.514+381.163+501.667+383.609+501.667Z" opacity="1" fill="#ffffff"/>
<path d="M488.34+558.423C483.36+558.423+479.078+556.632+475.495+553.049C471.912+549.466+470.121+545.184+470.121+540.204L470.121+482.267C470.121+477.286+471.912+473.004+475.495+469.422C479.078+465.839+483.36+464.047+488.34+464.047L546.277+464.047C551.258+464.047+555.54+465.839+559.122+469.422C562.705+473.004+564.497+477.286+564.497+482.267L564.497+540.204C564.497+545.184+562.705+549.466+559.122+553.049C555.54+556.632+551.258+558.423+546.277+558.423L488.34+558.423ZM492.011+540.99L542.476+540.99C544.835+540.99+546.189+540.837+546.539+540.531C546.889+540.225+547.063+538.849+547.063+536.402L547.063+486.068C547.063+483.622+546.889+482.245+546.539+481.94C546.189+481.634+544.835+481.481+542.476+481.481L492.011+481.481C489.564+481.481+488.188+481.634+487.882+481.94C487.576+482.245+487.423+483.622+487.423+486.068L487.423+536.402C487.423+538.849+487.576+540.225+487.882+540.531C488.188+540.837+489.564+540.99+492.011+540.99Z" opacity="1" fill="#ffffff"/>
<path d="M596.873+558.423C591.892+558.423+587.61+556.632+584.027+553.049C580.444+549.466+578.653+545.184+578.653+540.204L578.653+464.047L595.955+464.047L595.955+536.402C595.955+538.849+596.108+540.225+596.414+540.531C596.72+540.837+598.096+540.99+600.543+540.99L651.008+540.99C653.367+540.99+654.722+540.837+655.071+540.531C655.421+540.225+655.596+538.849+655.596+536.402L655.596+464.047L673.029+464.047L673.029+540.204C673.029+545.184+671.238+549.466+667.655+553.049C664.072+556.632+659.79+558.423+654.809+558.423L596.873+558.423Z" opacity="1" fill="#ffffff"/>
<path d="M721.266+558.423L721.266+481.481L682.729+481.481L682.729+464.047L777.105+464.047L777.105+481.481L738.699+481.481L738.699+558.423L721.266+558.423Z" opacity="1" fill="#ffffff"/>
</g>
</g>
</svg>
