<?xml version="1.0" encoding="UTF-8" standalone="no"?> <!-- Created with Vectornator for iOS (http://vectornator.io/) --><!DOCTYPE svg PUBLIC "-//W3C//DTD SVG 1.1//EN" "http://www.w3.org/Graphics/SVG/1.1/DTD/svg11.dtd">
<svg height="100%" style="fill-rule:evenodd;clip-rule:evenodd;stroke-linecap:round;stroke-linejoin:round;" xmlns:xlink="http://www.w3.org/1999/xlink" xmlns="http://www.w3.org/2000/svg" xml:space="preserve" width="100%" xmlns:vectornator="http://vectornator.io" version="1.1" viewBox="0 0 1024 1024">
<metadata>
<vectornator:setting key="DimensionsVisible" value="1"/>
<vectornator:setting key="PencilOnly" value="0"/>
<vectornator:setting key="SnapToPoints" value="0"/>
<vectornator:setting key="OutlineMode" value="0"/>
<vectornator:setting key="CMYKEnabledKey" value="0"/>
<vectornator:setting key="RulersVisible" value="1"/>
<vectornator:setting key="SnapToEdges" value="0"/>
<vectornator:setting key="GuidesVisible" value="1"/>
<vectornator:setting key="DisplayWhiteBackground" value="0"/>
<vectornator:setting key="doHistoryDisabled" value="0"/>
<vectornator:setting key="SnapToGuides" value="1"/>
<vectornator:setting key="TimeLapseWatermarkDisabled" value="0"/>
<vectornator:setting key="Units" value="Pixels"/>
<vectornator:setting key="DynamicGuides" value="1"/>
<vectornator:setting key="IsolateActiveLayer" value="0"/>
<vectornator:setting key="SnapToGrid" value="0"/>
</metadata>
<defs/>
<g id="Layer 1" vectornator:layerName="Layer 1">
<path d="M-5.05029e-06+327.435L564.081+327.435L1024+327.435L1024+696.565L-5.05029e-06+696.565L-5.05029e-06+327.435Z" opacity="1" fill="#18181e"/>
<g opacity="1">
<path d="M85.6043+558.423L85.6043+482.267C85.6043+477.286+87.3957+473.004+90.9785+469.422C94.5613+465.839+98.8432+464.047+103.824+464.047L161.629+464.047C166.698+464.047+171.023+465.839+174.606+469.422C178.189+473.004+179.98+477.286+179.98+482.267L179.98+558.423L162.547+558.423L162.547+526.703L102.907+526.703L102.907+558.423L85.6043+558.423ZM102.907+509.4L162.547+509.4L162.547+486.068C162.547+483.622+162.372+482.245+162.023+481.94C161.673+481.634+160.319+481.481+157.959+481.481L107.494+481.481C105.047+481.481+103.671+481.634+103.365+481.94C103.059+482.245+102.907+483.622+102.907+486.068L102.907+509.4Z" opacity="1" fill="#ffffff"/>
<path d="M212.881+558.423C207.9+558.423+203.618+556.632+200.035+553.049C196.452+549.466+194.661+545.184+194.661+540.204L194.661+464.047L211.963+464.047L211.963+536.402C211.963+538.849+212.116+540.225+212.422+540.531C212.728+540.837+214.104+540.99+216.551+540.99L267.016+540.99C269.375+540.99+270.73+540.837+271.079+540.531C271.429+540.225+271.604+538.849+271.604+536.402L271.604+464.047L289.037+464.047L289.037+540.204C289.037+545.184+287.245+549.466+283.663+553.049C280.08+556.632+275.798+558.423+270.817+558.423L212.881+558.423Z" opacity="1" fill="#ffffff"/>
<path d="M337.273+558.423L337.273+481.481L298.737+481.481L298.737+464.047L393.113+464.047L393.113+481.481L354.707+481.481L354.707+558.423L337.273+558.423Z" opacity="1" fill="#ffffff"/>
<path d="M420.901+558.423C415.92+558.423+411.638+556.632+408.055+553.049C404.473+549.466+402.681+545.184+402.681+540.204L402.681+482.267C402.681+477.286+404.473+473.004+408.055+469.422C411.638+465.839+415.92+464.047+420.901+464.047L478.837+464.047C483.818+464.047+488.1+465.839+491.683+469.422C495.266+473.004+497.057+477.286+497.057+482.267L497.057+540.204C497.057+545.184+495.266+549.466+491.683+553.049C488.1+556.632+483.818+558.423+478.837+558.423L420.901+558.423ZM424.571+540.99L475.036+540.99C477.395+540.99+478.75+540.837+479.1+540.531C479.449+540.225+479.624+538.849+479.624+536.402L479.624+486.068C479.624+483.622+479.449+482.245+479.1+481.94C478.75+481.634+477.395+481.481+475.036+481.481L424.571+481.481C422.124+481.481+420.748+481.634+420.442+481.94C420.136+482.245+419.983+483.622+419.983+486.068L419.983+536.402C419.983+538.849+420.136+540.225+420.442+540.531C420.748+540.837+422.124+540.99+424.571+540.99Z" opacity="1" fill="#ffffff"/>
<path d="M511.476+558.423L511.476+464.178L587.501+464.178C592.569+464.178+596.895+465.992+600.477+469.618C604.06+473.245+605.852+477.505+605.852+482.398L605.852+507.827C605.852+512.808+604.06+517.09+600.477+520.673C596.895+524.256+592.569+526.047+587.501+526.047L528.778+526.178L528.778+558.423L511.476+558.423ZM533.366+508.614L583.831+508.614C586.19+508.614+587.544+508.483+587.894+508.221C588.244+507.958+588.418+506.604+588.418+504.157L588.418+486.068C588.418+483.622+588.244+482.245+587.894+481.94C587.544+481.634+586.19+481.481+583.831+481.481L533.366+481.481C530.919+481.481+529.543+481.634+529.237+481.94C528.931+482.245+528.778+483.622+528.778+486.068L528.778+504.157C528.778+506.604+528.931+507.958+529.237+508.221C529.543+508.483+530.919+508.614+533.366+508.614Z" opacity="1" fill="#ffffff"/>
<path d="M614.634+558.423L614.634+464.047L631.805+464.047L631.805+558.423L614.634+558.423Z" opacity="1" fill="#ffffff"/>
<path d="M643.34+558.423L643.34+463.916L660.642+463.916L660.642+540.99L737.716+540.99L737.716+558.423L643.34+558.423Z" opacity="1" fill="#ffffff"/>
<path d="M763.276+558.423C758.295+558.423+754.013+556.632+750.43+553.049C746.848+549.466+745.056+545.184+745.056+540.204L745.056+482.267C745.056+477.286+746.848+473.004+750.43+469.422C754.013+465.839+758.295+464.047+763.276+464.047L821.212+464.047C826.193+464.047+830.475+465.839+834.058+469.422C837.641+473.004+839.432+477.286+839.432+482.267L839.432+540.204C839.432+545.184+837.641+549.466+834.058+553.049C830.475+556.632+826.193+558.423+821.212+558.423L763.276+558.423ZM766.946+540.99L817.411+540.99C819.77+540.99+821.125+540.837+821.474+540.531C821.824+540.225+821.999+538.849+821.999+536.402L821.999+486.068C821.999+483.622+821.824+482.245+821.474+481.94C821.125+481.634+819.77+481.481+817.411+481.481L766.946+481.481C764.499+481.481+763.123+481.634+762.817+481.94C762.511+482.245+762.358+483.622+762.358+486.068L762.358+536.402C762.358+538.849+762.511+540.225+762.817+540.531C763.123+540.837+764.499+540.99+766.946+540.99Z" opacity="1" fill="#ffffff"/>
<path d="M887.669+558.423L887.669+481.481L849.132+481.481L849.132+464.047L943.508+464.047L943.508+481.481L905.102+481.481L905.102+558.423L887.669+558.423Z" opacity="1" fill="#ffffff"/>
</g>
</g>
</svg>
