<?xml version="1.0" encoding="UTF-8" standalone="no"?> <!-- Created with Vectornator for iOS (http://vectornator.io/) --><!DOCTYPE svg PUBLIC "-//W3C//DTD SVG 1.1//EN" "http://www.w3.org/Graphics/SVG/1.1/DTD/svg11.dtd">
<svg height="100%" style="fill-rule:evenodd;clip-rule:evenodd;stroke-linecap:round;stroke-linejoin:round;" xmlns:xlink="http://www.w3.org/1999/xlink" xmlns="http://www.w3.org/2000/svg" xml:space="preserve" width="100%" xmlns:vectornator="http://vectornator.io" version="1.1" viewBox="0 0 1024 1024">
<metadata>
<vectornator:setting key="DimensionsVisible" value="1"/>
<vectornator:setting key="PencilOnly" value="0"/>
<vectornator:setting key="SnapToPoints" value="0"/>
<vectornator:setting key="OutlineMode" value="0"/>
<vectornator:setting key="CMYKEnabledKey" value="0"/>
<vectornator:setting key="RulersVisible" value="1"/>
<vectornator:setting key="SnapToEdges" value="0"/>
<vectornator:setting key="GuidesVisible" value="1"/>
<vectornator:setting key="DisplayWhiteBackground" value="0"/>
<vectornator:setting key="doHistoryDisabled" value="0"/>
<vectornator:setting key="SnapToGuides" value="1"/>
<vectornator:setting key="TimeLapseWatermarkDisabled" value="0"/>
<vectornator:setting key="Units" value="Pixels"/>
<vectornator:setting key="DynamicGuides" value="1"/>
<vectornator:setting key="IsolateActiveLayer" value="0"/>
<vectornator:setting key="SnapToGrid" value="0"/>
</metadata>
<defs/>
<g id="Layer 1" vectornator:layerName="Layer 1">
<path d="M-5.05029e-06+327.435L564.081+327.435L1024+327.435L1024+696.565L-5.05029e-06+696.565L-5.05029e-06+327.435Z" opacity="1" fill="#18181e"/>
<g opacity="1">
<path d="M15.9259+558.423L15.9259+464.047L88.2808+464.047C93.2618+464.047+97.5436+465.839+101.126+469.422C104.709+473.004+106.501+477.286+106.501+482.267L106.501+500.749C106.501+501.885+106.413+502.977+106.238+504.026C106.064+505.075+105.758+506.08+105.321+507.041C106.806+509.051+108.008+511.148+108.926+513.333C109.843+515.517+110.302+517.702+110.302+519.887L110.302+540.204C110.302+545.184+108.51+549.466+104.928+553.049C101.345+556.632+97.0193+558.423+91.951+558.423L15.9259+558.423ZM37.8159+540.99L88.2808+540.99C90.6402+540.99+91.9947+540.837+92.3442+540.531C92.6938+540.225+92.8685+538.849+92.8685+536.402L92.8685+523.688C92.8685+521.241+92.6938+519.865+92.3442+519.559C91.9947+519.253+90.6402+519.1+88.2808+519.1L37.8159+519.1C35.3691+519.1+33.9928+519.253+33.687+519.559C33.3811+519.865+33.2282+521.241+33.2282+523.688L33.2282+536.402C33.2282+538.849+33.3811+540.225+33.687+540.531C33.9928+540.837+35.3691+540.99+37.8159+540.99ZM37.8159+501.667L84.4796+501.667C86.9263+501.667+88.2808+501.514+88.543+501.208C88.8051+500.902+88.9362+499.526+88.9362+497.079L88.9362+486.068C88.9362+483.622+88.8051+482.245+88.543+481.94C88.2808+481.634+86.9263+481.481+84.4796+481.481L37.8159+481.481C35.3691+481.481+33.9928+481.634+33.687+481.94C33.3811+482.245+33.2282+483.622+33.2282+486.068L33.2282+497.079C33.2282+499.526+33.3811+500.902+33.687+501.208C33.9928+501.514+35.3691+501.667+37.8159+501.667Z" opacity="1" fill="#ffffff"/>
<path d="M124.851+558.423L124.851+464.047L211.756+464.047L211.756+481.481L142.285+481.481L142.285+502.453L198.124+502.453L198.124+520.018L142.285+520.018L142.285+540.99L211.756+540.99L211.756+558.423L124.851+558.423Z" opacity="1" fill="#ffffff"/>
<path d="M225.257+558.423L225.257+464.047L301.282+464.047C306.35+464.047+310.676+465.839+314.259+469.422C317.842+473.004+319.633+477.286+319.633+482.267L319.633+540.204C319.633+545.184+317.842+549.466+314.259+553.049C310.676+556.632+306.35+558.423+301.282+558.423L225.257+558.423ZM247.147+540.99L297.612+540.99C299.971+540.99+301.326+540.837+301.675+540.531C302.025+540.225+302.2+538.849+302.2+536.402L302.2+486.068C302.2+483.622+302.025+482.245+301.675+481.94C301.326+481.634+299.971+481.481+297.612+481.481L247.147+481.481C244.7+481.481+243.324+481.634+243.018+481.94C242.712+482.245+242.559+483.622+242.559+486.068L242.559+536.402C242.559+538.849+242.712+540.225+243.018+540.531C243.324+540.837+244.7+540.99+247.147+540.99Z" opacity="1" fill="#ffffff"/>
</g>
</g>
</svg>
