<?xml version="1.0" encoding="UTF-8" standalone="no"?> <!-- Created with Vectornator for iOS (http://vectornator.io/) --><!DOCTYPE svg PUBLIC "-//W3C//DTD SVG 1.1//EN" "http://www.w3.org/Graphics/SVG/1.1/DTD/svg11.dtd">
<svg height="100%" style="fill-rule:evenodd;clip-rule:evenodd;stroke-linecap:round;stroke-linejoin:round;" xmlns:xlink="http://www.w3.org/1999/xlink" xmlns="http://www.w3.org/2000/svg" xml:space="preserve" width="100%" xmlns:vectornator="http://vectornator.io" version="1.1" viewBox="0 0 1024 1024">
<metadata>
<vectornator:setting key="DimensionsVisible" value="1"/>
<vectornator:setting key="PencilOnly" value="0"/>
<vectornator:setting key="SnapToPoints" value="0"/>
<vectornator:setting key="OutlineMode" value="0"/>
<vectornator:setting key="CMYKEnabledKey" value="0"/>
<vectornator:setting key="RulersVisible" value="1"/>
<vectornator:setting key="SnapToEdges" value="0"/>
<vectornator:setting key="GuidesVisible" value="1"/>
<vectornator:setting key="DisplayWhiteBackground" value="0"/>
<vectornator:setting key="doHistoryDisabled" value="0"/>
<vectornator:setting key="SnapToGuides" value="1"/>
<vectornator:setting key="TimeLapseWatermarkDisabled" value="0"/>
<vectornator:setting key="Units" value="Pixels"/>
<vectornator:setting key="DynamicGuides" value="1"/>
<vectornator:setting key="IsolateActiveLayer" value="0"/>
<vectornator:setting key="SnapToGrid" value="0"/>
</metadata>
<defs/>
<g id="Layer 1" vectornator:layerName="Layer 1">
<path d="M-5.05029e-06+327.435L564.081+327.435L1024+327.435L1024+696.565L-5.05029e-06+696.565L-5.05029e-06+327.435Z" opacity="1" fill="#18181e"/>
<g opacity="1">
<path d="M15.9259+558.423L15.9259+464.047L88.2808+464.047C93.2618+464.047+97.5436+465.839+101.126+469.422C104.709+473.004+106.501+477.286+106.501+482.267L106.501+500.749C106.501+501.885+106.413+502.977+106.238+504.026C106.064+505.075+105.758+506.08+105.321+507.041C106.806+509.051+108.008+511.148+108.926+513.333C109.843+515.517+110.302+517.702+110.302+519.887L110.302+540.204C110.302+545.184+108.51+549.466+104.928+553.049C101.345+556.632+97.0193+558.423+91.951+558.423L15.9259+558.423ZM37.8159+540.99L88.2808+540.99C90.6402+540.99+91.9947+540.837+92.3442+540.531C92.6938+540.225+92.8685+538.849+92.8685+536.402L92.8685+523.688C92.8685+521.241+92.6938+519.865+92.3442+519.559C91.9947+519.253+90.6402+519.1+88.2808+519.1L37.8159+519.1C35.3691+519.1+33.9928+519.253+33.687+519.559C33.3811+519.865+33.2282+521.241+33.2282+523.688L33.2282+536.402C33.2282+538.849+33.3811+540.225+33.687+540.531C33.9928+540.837+35.3691+540.99+37.8159+540.99ZM37.8159+501.667L84.4796+501.667C86.9263+501.667+88.2808+501.514+88.543+501.208C88.8051+500.902+88.9362+499.526+88.9362+497.079L88.9362+486.068C88.9362+483.622+88.8051+482.245+88.543+481.94C88.2808+481.634+86.9263+481.481+84.4796+481.481L37.8159+481.481C35.3691+481.481+33.9928+481.634+33.687+481.94C33.3811+482.245+33.2282+483.622+33.2282+486.068L33.2282+497.079C33.2282+499.526+33.3811+500.902+33.687+501.208C33.9928+501.514+35.3691+501.667+37.8159+501.667Z" opacity="1" fill="#ffffff"/>
<path d="M124.458+558.423L124.458+464.178L200.483+464.178C205.552+464.178+209.877+465.992+213.46+469.618C217.043+473.245+218.834+477.505+218.834+482.398L218.834+507.827C218.834+512.808+217.043+517.09+213.46+520.673C209.877+524.256+205.552+526.047+200.483+526.047L195.371+526.047L218.703+553.573L218.703+558.423L199.828+558.423L172.695+526.047L141.761+526.178L141.761+558.423L124.458+558.423ZM146.348+508.614L196.813+508.614C199.173+508.614+200.505+508.483+200.811+508.221C201.117+507.958+201.27+506.604+201.27+504.157L201.27+486.068C201.27+483.622+201.117+482.245+200.811+481.94C200.505+481.634+199.173+481.481+196.813+481.481L146.348+481.481C143.901+481.481+142.525+481.634+142.219+481.94C141.913+482.245+141.761+483.622+141.761+486.068L141.761+504.157C141.761+506.604+141.913+507.958+142.219+508.221C142.525+508.483+143.901+508.614+146.348+508.614Z" opacity="1" fill="#ffffff"/>
<path d="M232.204+558.423L232.204+464.047L249.375+464.047L249.375+558.423L232.204+558.423Z" opacity="1" fill="#ffffff"/>
<path d="M278.999+558.423C274.018+558.423+269.736+556.632+266.153+553.049C262.57+549.466+260.779+545.184+260.779+540.204L260.779+482.267C260.779+477.286+262.57+473.004+266.153+469.422C269.736+465.839+274.018+464.047+278.999+464.047L336.804+464.047C341.872+464.047+346.198+465.839+349.781+469.422C353.364+473.004+355.155+477.286+355.155+482.267L355.155+489.608L337.722+489.608L337.722+486.068C337.722+483.622+337.547+482.245+337.197+481.94C336.848+481.634+335.493+481.481+333.134+481.481L282.669+481.481C280.222+481.481+278.846+481.634+278.54+481.94C278.234+482.245+278.081+483.622+278.081+486.068L278.081+536.402C278.081+538.849+278.234+540.225+278.54+540.531C278.846+540.837+280.222+540.99+282.669+540.99L333.134+540.99C335.493+540.99+336.848+540.837+337.197+540.531C337.547+540.225+337.722+538.849+337.722+536.402L337.722+522.377L316.356+522.377L316.356+504.944L355.155+504.944L355.155+540.204C355.155+545.184+353.364+549.466+349.781+553.049C346.198+556.632+341.872+558.423+336.804+558.423L278.999+558.423Z" opacity="1" fill="#ffffff"/>
<path d="M369.705+558.423L369.705+464.047L387.007+464.047L387.007+502.453L448.876+502.453L448.876+464.047L466.178+464.047L466.178+558.423L448.876+558.423L448.876+520.018L387.007+520.018L387.007+558.423L369.705+558.423Z" opacity="1" fill="#ffffff"/>
<path d="M514.939+558.423L514.939+481.481L476.402+481.481L476.402+464.047L570.778+464.047L570.778+481.481L532.372+481.481L532.372+558.423L514.939+558.423Z" opacity="1" fill="#ffffff"/>
<path d="M580.609+558.423L580.609+464.047L599.615+464.047L657.551+532.994L657.551+464.047L674.985+464.047L674.985+558.423L655.978+558.423L597.911+489.345L597.911+558.423L580.609+558.423Z" opacity="1" fill="#ffffff"/>
<path d="M689.927+558.423L689.927+464.047L776.832+464.047L776.832+481.481L707.361+481.481L707.361+502.453L763.2+502.453L763.2+520.018L707.361+520.018L707.361+540.99L776.832+540.99L776.832+558.423L689.927+558.423Z" opacity="1" fill="#ffffff"/>
<path d="M807.897+558.423C802.916+558.423+798.634+556.632+795.052+553.049C791.469+549.466+789.677+545.184+789.677+540.204L789.677+532.994L806.98+532.994L806.98+536.402C806.98+538.849+807.133+540.225+807.439+540.531C807.744+540.837+809.121+540.99+811.567+540.99L862.032+540.99C864.479+540.99+865.855+540.837+866.161+540.531C866.467+540.225+866.62+538.849+866.62+536.402L866.62+524.474C866.62+522.027+866.467+520.673+866.161+520.411C865.855+520.149+864.479+520.018+862.032+520.018L807.897+520.018C802.916+520.018+798.634+518.204+795.052+514.578C791.469+510.951+789.677+506.648+789.677+501.667L789.677+482.267C789.677+477.286+791.469+473.004+795.052+469.422C798.634+465.839+802.916+464.047+807.897+464.047L865.834+464.047C870.815+464.047+875.096+465.839+878.679+469.422C882.262+473.004+884.053+477.286+884.053+482.267L884.053+489.476L866.62+489.476L866.62+486.068C866.62+483.622+866.467+482.245+866.161+481.94C865.855+481.634+864.479+481.481+862.032+481.481L811.567+481.481C809.121+481.481+807.744+481.634+807.439+481.94C807.133+482.245+806.98+483.622+806.98+486.068L806.98+497.997C806.98+500.443+807.133+501.798+807.439+502.06C807.744+502.322+809.121+502.453+811.567+502.453L865.834+502.453C870.815+502.453+875.096+504.266+878.679+507.893C882.262+511.519+884.053+515.823+884.053+520.804L884.053+540.204C884.053+545.184+882.262+549.466+878.679+553.049C875.096+556.632+870.815+558.423+865.834+558.423L807.897+558.423Z" opacity="1" fill="#ffffff"/>
<path d="M916.167+558.423C911.186+558.423+906.905+556.632+903.322+553.049C899.739+549.466+897.948+545.184+897.948+540.204L897.948+532.994L915.25+532.994L915.25+536.402C915.25+538.849+915.403+540.225+915.709+540.531C916.015+540.837+917.391+540.99+919.838+540.99L970.303+540.99C972.749+540.99+974.126+540.837+974.431+540.531C974.737+540.225+974.89+538.849+974.89+536.402L974.89+524.474C974.89+522.027+974.737+520.673+974.431+520.411C974.126+520.149+972.749+520.018+970.303+520.018L916.167+520.018C911.186+520.018+906.905+518.204+903.322+514.578C899.739+510.951+897.948+506.648+897.948+501.667L897.948+482.267C897.948+477.286+899.739+473.004+903.322+469.422C906.905+465.839+911.186+464.047+916.167+464.047L974.104+464.047C979.085+464.047+983.367+465.839+986.949+469.422C990.532+473.004+992.324+477.286+992.324+482.267L992.324+489.476L974.89+489.476L974.89+486.068C974.89+483.622+974.737+482.245+974.431+481.94C974.126+481.634+972.749+481.481+970.303+481.481L919.838+481.481C917.391+481.481+916.015+481.634+915.709+481.94C915.403+482.245+915.25+483.622+915.25+486.068L915.25+497.997C915.25+500.443+915.403+501.798+915.709+502.06C916.015+502.322+917.391+502.453+919.838+502.453L974.104+502.453C979.085+502.453+983.367+504.266+986.949+507.893C990.532+511.519+992.324+515.823+992.324+520.804L992.324+540.204C992.324+545.184+990.532+549.466+986.949+553.049C983.367+556.632+979.085+558.423+974.104+558.423L916.167+558.423Z" opacity="1" fill="#ffffff"/>
</g>
</g>
</svg>
