<?xml version="1.0" encoding="UTF-8" standalone="no"?> <!-- Created with Vectornator for iOS (http://vectornator.io/) --><!DOCTYPE svg PUBLIC "-//W3C//DTD SVG 1.1//EN" "http://www.w3.org/Graphics/SVG/1.1/DTD/svg11.dtd">
<svg height="100%" style="fill-rule:evenodd;clip-rule:evenodd;stroke-linecap:round;stroke-linejoin:round;" xmlns:xlink="http://www.w3.org/1999/xlink" xmlns="http://www.w3.org/2000/svg" xml:space="preserve" width="100%" xmlns:vectornator="http://vectornator.io" version="1.1" viewBox="0 0 1024 1024">
<metadata>
<vectornator:setting key="DimensionsVisible" value="1"/>
<vectornator:setting key="PencilOnly" value="0"/>
<vectornator:setting key="SnapToPoints" value="0"/>
<vectornator:setting key="OutlineMode" value="0"/>
<vectornator:setting key="CMYKEnabledKey" value="0"/>
<vectornator:setting key="RulersVisible" value="1"/>
<vectornator:setting key="SnapToEdges" value="0"/>
<vectornator:setting key="GuidesVisible" value="1"/>
<vectornator:setting key="DisplayWhiteBackground" value="0"/>
<vectornator:setting key="doHistoryDisabled" value="0"/>
<vectornator:setting key="SnapToGuides" value="1"/>
<vectornator:setting key="TimeLapseWatermarkDisabled" value="0"/>
<vectornator:setting key="Units" value="Pixels"/>
<vectornator:setting key="DynamicGuides" value="1"/>
<vectornator:setting key="IsolateActiveLayer" value="0"/>
<vectornator:setting key="SnapToGrid" value="0"/>
</metadata>
<defs/>
<g id="Layer 1" vectornator:layerName="Layer 1">
<path d="M-5.05029e-06+327.435L564.081+327.435L1024+327.435L1024+696.565L-5.05029e-06+696.565L-5.05029e-06+327.435Z" opacity="1" fill="#18181e"/>
<g opacity="1">
<path d="M141.706+558.423C136.725+558.423+132.443+556.632+128.86+553.049C125.277+549.466+123.486+545.184+123.486+540.204L123.486+482.267C123.486+477.286+125.277+473.004+128.86+469.422C132.443+465.839+136.725+464.047+141.706+464.047L217.6+464.047L217.6+481.481L145.376+481.481C142.929+481.481+141.553+481.634+141.247+481.94C140.941+482.245+140.788+483.622+140.788+486.068L140.788+536.402C140.788+538.849+140.941+540.225+141.247+540.531C141.553+540.837+142.929+540.99+145.376+540.99L217.6+540.99L217.6+558.423L141.706+558.423Z" opacity="1" fill="#ffffff"/>
<path d="M231.363+558.423L231.363+464.047L248.665+464.047L248.665+502.453L310.534+502.453L310.534+464.047L327.836+464.047L327.836+558.423L310.534+558.423L310.534+520.018L248.665+520.018L248.665+558.423L231.363+558.423Z" opacity="1" fill="#ffffff"/>
<path d="M343.041+558.423L343.041+482.267C343.041+477.286+344.832+473.004+348.415+469.422C351.998+465.839+356.28+464.047+361.261+464.047L419.066+464.047C424.134+464.047+428.46+465.839+432.043+469.422C435.625+473.004+437.417+477.286+437.417+482.267L437.417+558.423L419.983+558.423L419.983+526.703L360.343+526.703L360.343+558.423L343.041+558.423ZM360.343+509.4L419.983+509.4L419.983+486.068C419.983+483.622+419.809+482.245+419.459+481.94C419.11+481.634+417.755+481.481+415.396+481.481L364.931+481.481C362.484+481.481+361.108+481.634+360.802+481.94C360.496+482.245+360.343+483.622+360.343+486.068L360.343+509.4Z" opacity="1" fill="#ffffff"/>
<path d="M452.229+558.423L452.229+464.178L528.254+464.178C533.322+464.178+537.648+465.992+541.23+469.618C544.813+473.245+546.605+477.505+546.605+482.398L546.605+507.827C546.605+512.808+544.813+517.09+541.23+520.673C537.648+524.256+533.322+526.047+528.254+526.047L523.142+526.047L546.473+553.573L546.473+558.423L527.598+558.423L500.465+526.047L469.531+526.178L469.531+558.423L452.229+558.423ZM474.119+508.614L524.583+508.614C526.943+508.614+528.275+508.483+528.581+508.221C528.887+507.958+529.04+506.604+529.04+504.157L529.04+486.068C529.04+483.622+528.887+482.245+528.581+481.94C528.275+481.634+526.943+481.481+524.583+481.481L474.119+481.481C471.672+481.481+470.295+481.634+469.99+481.94C469.684+482.245+469.531+483.622+469.531+486.068L469.531+504.157C469.531+506.604+469.684+507.958+469.99+508.221C470.295+508.483+471.672+508.614+474.119+508.614Z" opacity="1" fill="#ffffff"/>
<path d="M578.719+558.423C573.738+558.423+569.456+556.632+565.873+553.049C562.29+549.466+560.499+545.184+560.499+540.204L560.499+482.267C560.499+477.286+562.29+473.004+565.873+469.422C569.456+465.839+573.738+464.047+578.719+464.047L636.524+464.047C641.592+464.047+645.918+465.839+649.5+469.422C653.083+473.004+654.875+477.286+654.875+482.267L654.875+489.608L637.441+489.608L637.441+486.068C637.441+483.622+637.267+482.245+636.917+481.94C636.567+481.634+635.213+481.481+632.854+481.481L582.389+481.481C579.942+481.481+578.566+481.634+578.26+481.94C577.954+482.245+577.801+483.622+577.801+486.068L577.801+536.402C577.801+538.849+577.954+540.225+578.26+540.531C578.566+540.837+579.942+540.99+582.389+540.99L632.854+540.99C635.213+540.99+636.567+540.837+636.917+540.531C637.267+540.225+637.441+538.849+637.441+536.402L637.441+522.377L616.076+522.377L616.076+504.944L654.875+504.944L654.875+540.204C654.875+545.184+653.083+549.466+649.5+553.049C645.918+556.632+641.592+558.423+636.524+558.423L578.719+558.423Z" opacity="1" fill="#ffffff"/>
<path d="M668.769+558.423L668.769+464.047L685.94+464.047L685.94+558.423L668.769+558.423Z" opacity="1" fill="#ffffff"/>
<path d="M697.344+558.423L697.344+464.047L716.35+464.047L774.286+532.994L774.286+464.047L791.72+464.047L791.72+558.423L772.714+558.423L714.646+489.345L714.646+558.423L697.344+558.423Z" opacity="1" fill="#ffffff"/>
<path d="M824.62+558.423C819.639+558.423+815.357+556.632+811.775+553.049C808.192+549.466+806.4+545.184+806.4+540.204L806.4+482.267C806.4+477.286+808.192+473.004+811.775+469.422C815.357+465.839+819.639+464.047+824.62+464.047L882.426+464.047C887.494+464.047+891.819+465.839+895.402+469.422C898.985+473.004+900.776+477.286+900.776+482.267L900.776+489.608L883.343+489.608L883.343+486.068C883.343+483.622+883.168+482.245+882.819+481.94C882.469+481.634+881.115+481.481+878.755+481.481L828.29+481.481C825.844+481.481+824.467+481.634+824.161+481.94C823.856+482.245+823.703+483.622+823.703+486.068L823.703+536.402C823.703+538.849+823.856+540.225+824.161+540.531C824.467+540.837+825.844+540.99+828.29+540.99L878.755+540.99C881.115+540.99+882.469+540.837+882.819+540.531C883.168+540.225+883.343+538.849+883.343+536.402L883.343+522.377L861.977+522.377L861.977+504.944L900.776+504.944L900.776+540.204C900.776+545.184+898.985+549.466+895.402+553.049C891.819+556.632+887.494+558.423+882.426+558.423L824.62+558.423Z" opacity="1" fill="#ffffff"/>
</g>
</g>
</svg>
