<svg width="73" height="73" viewBox="0 0 73 73" fill="none" xmlns="http://www.w3.org/2000/svg">
<rect x="0.488159" y="0.500977" width="72.0323" height="72.0323" fill="#19181E"/>
<path fill-rule="evenodd" clip-rule="evenodd" d="M19.5482 17.2545H53.4604C53.4604 17.2545 59.8814 30.7371 59.8814 33.7026V48.3041C59.8814 48.3099 59.8814 48.3156 59.8814 48.3213C59.8814 48.3271 59.8814 48.3328 59.8814 48.3385V50.1508H59.659C58.8565 53.3855 55.9749 55.7798 52.5431 55.7798C49.1113 55.7798 46.2298 53.3855 45.4272 50.1508H27.5813C26.7788 53.3855 23.8972 55.7798 20.4655 55.7798C17.0337 55.7798 14.1521 53.3855 13.3496 50.1508H13.1272V48.3213V33.7026C13.1272 30.7371 19.5482 17.2545 19.5482 17.2545Z" fill="white"/>
</svg>
