<?xml version="1.0" encoding="UTF-8" standalone="no"?> <!-- Created with Vectornator for iOS (http://vectornator.io/) --><!DOCTYPE svg PUBLIC "-//W3C//DTD SVG 1.1//EN" "http://www.w3.org/Graphics/SVG/1.1/DTD/svg11.dtd">
<svg height="100%" style="fill-rule:evenodd;clip-rule:evenodd;stroke-linecap:round;stroke-linejoin:round;" xmlns:xlink="http://www.w3.org/1999/xlink" xmlns="http://www.w3.org/2000/svg" xml:space="preserve" width="100%" xmlns:vectornator="http://vectornator.io" version="1.1" viewBox="0 0 1024 1024">
<metadata>
<vectornator:setting key="DimensionsVisible" value="1"/>
<vectornator:setting key="PencilOnly" value="0"/>
<vectornator:setting key="SnapToPoints" value="0"/>
<vectornator:setting key="OutlineMode" value="0"/>
<vectornator:setting key="CMYKEnabledKey" value="0"/>
<vectornator:setting key="RulersVisible" value="1"/>
<vectornator:setting key="SnapToEdges" value="0"/>
<vectornator:setting key="GuidesVisible" value="1"/>
<vectornator:setting key="DisplayWhiteBackground" value="0"/>
<vectornator:setting key="doHistoryDisabled" value="0"/>
<vectornator:setting key="SnapToGuides" value="1"/>
<vectornator:setting key="TimeLapseWatermarkDisabled" value="0"/>
<vectornator:setting key="Units" value="Pixels"/>
<vectornator:setting key="DynamicGuides" value="1"/>
<vectornator:setting key="IsolateActiveLayer" value="0"/>
<vectornator:setting key="SnapToGrid" value="0"/>
</metadata>
<defs/>
<g id="Layer 1" vectornator:layerName="Layer 1">
<path d="M-5.05029e-06+327.435L564.081+327.435L1024+327.435L1024+696.565L-5.05029e-06+696.565L-5.05029e-06+327.435Z" opacity="1" fill="#18181e"/>
<g opacity="1">
<path d="M111.623+558.423C106.642+558.423+102.36+556.632+98.7776+553.049C95.1948+549.466+93.4034+545.184+93.4034+540.204L93.4034+482.267C93.4034+477.286+95.1948+473.004+98.7776+469.422C102.36+465.839+106.642+464.047+111.623+464.047L187.517+464.047L187.517+481.481L115.293+481.481C112.847+481.481+111.47+481.634+111.164+481.94C110.859+482.245+110.706+483.622+110.706+486.068L110.706+536.402C110.706+538.849+110.859+540.225+111.164+540.531C111.47+540.837+112.847+540.99+115.293+540.99L187.517+540.99L187.517+558.423L111.623+558.423Z" opacity="1" fill="#ffffff"/>
<path d="M219.107+558.423C214.126+558.423+209.844+556.632+206.261+553.049C202.679+549.466+200.887+545.184+200.887+540.204L200.887+482.267C200.887+477.286+202.679+473.004+206.261+469.422C209.844+465.839+214.126+464.047+219.107+464.047L277.043+464.047C282.024+464.047+286.306+465.839+289.889+469.422C293.472+473.004+295.263+477.286+295.263+482.267L295.263+540.204C295.263+545.184+293.472+549.466+289.889+553.049C286.306+556.632+282.024+558.423+277.043+558.423L219.107+558.423ZM222.777+540.99L273.242+540.99C275.601+540.99+276.956+540.837+277.305+540.531C277.655+540.225+277.83+538.849+277.83+536.402L277.83+486.068C277.83+483.622+277.655+482.245+277.305+481.94C276.956+481.634+275.601+481.481+273.242+481.481L222.777+481.481C220.33+481.481+218.954+481.634+218.648+481.94C218.342+482.245+218.189+483.622+218.189+486.068L218.189+536.402C218.189+538.849+218.342+540.225+218.648+540.531C218.954+540.837+220.33+540.99+222.777+540.99Z" opacity="1" fill="#ffffff"/>
<path d="M309.682+558.423L309.682+464.047L328.688+464.047L386.624+532.994L386.624+464.047L404.058+464.047L404.058+558.423L385.051+558.423L326.984+489.345L326.984+558.423L309.682+558.423Z" opacity="1" fill="#ffffff"/>
<path d="M452.556+558.423L452.556+481.481L414.019+481.481L414.019+464.047L508.395+464.047L508.395+481.481L469.99+481.481L469.99+558.423L452.556+558.423Z" opacity="1" fill="#ffffff"/>
<path d="M518.095+558.423L518.095+464.178L594.12+464.178C599.189+464.178+603.514+465.992+607.097+469.618C610.68+473.245+612.471+477.505+612.471+482.398L612.471+507.827C612.471+512.808+610.68+517.09+607.097+520.673C603.514+524.256+599.189+526.047+594.12+526.047L589.008+526.047L612.34+553.573L612.34+558.423L593.465+558.423L566.332+526.047L535.397+526.178L535.397+558.423L518.095+558.423ZM539.985+508.614L590.45+508.614C592.809+508.614+594.142+508.483+594.448+508.221C594.754+507.958+594.907+506.604+594.907+504.157L594.907+486.068C594.907+483.622+594.754+482.245+594.448+481.94C594.142+481.634+592.809+481.481+590.45+481.481L539.985+481.481C537.538+481.481+536.162+481.634+535.856+481.94C535.55+482.245+535.397+483.622+535.397+486.068L535.397+504.157C535.397+506.604+535.55+507.958+535.856+508.221C536.162+508.483+537.538+508.614+539.985+508.614Z" opacity="1" fill="#ffffff"/>
<path d="M644.323+558.423C639.342+558.423+635.06+556.632+631.477+553.049C627.895+549.466+626.103+545.184+626.103+540.204L626.103+482.267C626.103+477.286+627.895+473.004+631.477+469.422C635.06+465.839+639.342+464.047+644.323+464.047L702.259+464.047C707.24+464.047+711.522+465.839+715.105+469.422C718.688+473.004+720.479+477.286+720.479+482.267L720.479+540.204C720.479+545.184+718.688+549.466+715.105+553.049C711.522+556.632+707.24+558.423+702.259+558.423L644.323+558.423ZM647.993+540.99L698.458+540.99C700.817+540.99+702.172+540.837+702.521+540.531C702.871+540.225+703.046+538.849+703.046+536.402L703.046+486.068C703.046+483.622+702.871+482.245+702.521+481.94C702.172+481.634+700.817+481.481+698.458+481.481L647.993+481.481C645.546+481.481+644.17+481.634+643.864+481.94C643.558+482.245+643.405+483.622+643.405+486.068L643.405+536.402C643.405+538.849+643.558+540.225+643.864+540.531C644.17+540.837+645.546+540.99+647.993+540.99Z" opacity="1" fill="#ffffff"/>
<path d="M735.029+558.423L735.029+463.916L752.331+463.916L752.331+540.99L829.405+540.99L829.405+558.423L735.029+558.423Z" opacity="1" fill="#ffffff"/>
<path d="M854.834+558.423C849.853+558.423+845.571+556.632+841.988+553.049C838.405+549.466+836.614+545.184+836.614+540.204L836.614+532.994L853.916+532.994L853.916+536.402C853.916+538.849+854.069+540.225+854.375+540.531C854.681+540.837+856.057+540.99+858.504+540.99L908.969+540.99C911.416+540.99+912.792+540.837+913.098+540.531C913.404+540.225+913.556+538.849+913.556+536.402L913.556+524.474C913.556+522.027+913.404+520.673+913.098+520.411C912.792+520.149+911.416+520.018+908.969+520.018L854.834+520.018C849.853+520.018+845.571+518.204+841.988+514.578C838.405+510.951+836.614+506.648+836.614+501.667L836.614+482.267C836.614+477.286+838.405+473.004+841.988+469.422C845.571+465.839+849.853+464.047+854.834+464.047L912.77+464.047C917.751+464.047+922.033+465.839+925.616+469.422C929.198+473.004+930.99+477.286+930.99+482.267L930.99+489.476L913.556+489.476L913.556+486.068C913.556+483.622+913.404+482.245+913.098+481.94C912.792+481.634+911.416+481.481+908.969+481.481L858.504+481.481C856.057+481.481+854.681+481.634+854.375+481.94C854.069+482.245+853.916+483.622+853.916+486.068L853.916+497.997C853.916+500.443+854.069+501.798+854.375+502.06C854.681+502.322+856.057+502.453+858.504+502.453L912.77+502.453C917.751+502.453+922.033+504.266+925.616+507.893C929.198+511.519+930.99+515.823+930.99+520.804L930.99+540.204C930.99+545.184+929.198+549.466+925.616+553.049C922.033+556.632+917.751+558.423+912.77+558.423L854.834+558.423Z" opacity="1" fill="#ffffff"/>
</g>
</g>
</svg>
