<svg width="359" height="359" viewBox="0 0 359 359" fill="none" xmlns="http://www.w3.org/2000/svg">
<g filter="url(#filter0_d)">
<path fill-rule="evenodd" clip-rule="evenodd" d="M177 303.977V339H182V303.977C254.297 302.659 312.659 244.297 313.977 172H349V167H313.977C312.659 94.7028 254.297 36.3406 182 35.0228V0H177V35.0228C104.703 36.3406 46.3406 94.7028 45.0228 167H10V172H45.0228C46.3406 244.297 104.703 302.659 177 303.977ZM182 283.973C243.251 282.661 292.661 233.251 293.973 172H182V283.973ZM177 172V283.973C115.749 282.661 66.3388 233.251 65.0268 172H177ZM182 167H293.973C292.661 105.749 243.251 56.3388 182 55.0268V167ZM177 55.0268V167H65.0268C66.3388 105.749 115.749 56.3388 177 55.0268Z" fill="white"/>
</g>
<defs>
<filter id="filter0_d" x="0" y="0" width="359" height="359" filterUnits="userSpaceOnUse" color-interpolation-filters="sRGB">
<feFlood flood-opacity="0" result="BackgroundImageFix"/>
<feColorMatrix in="SourceAlpha" type="matrix" values="0 0 0 0 0 0 0 0 0 0 0 0 0 0 0 0 0 0 127 0"/>
<feOffset dy="10"/>
<feGaussianBlur stdDeviation="5"/>
<feColorMatrix type="matrix" values="0 0 0 0 0 0 0 0 0 0 0 0 0 0 0 0 0 0 0.2 0"/>
<feBlend mode="normal" in2="BackgroundImageFix" result="effect1_dropShadow"/>
<feBlend mode="normal" in="SourceGraphic" in2="effect1_dropShadow" result="shape"/>
</filter>
</defs>
</svg>
