<?xml version="1.0" encoding="UTF-8" standalone="no"?> <!-- Created with Vectornator for iOS (http://vectornator.io/) --><!DOCTYPE svg PUBLIC "-//W3C//DTD SVG 1.1//EN" "http://www.w3.org/Graphics/SVG/1.1/DTD/svg11.dtd">
<svg height="100%" style="fill-rule:evenodd;clip-rule:evenodd;stroke-linecap:round;stroke-linejoin:round;" xmlns:xlink="http://www.w3.org/1999/xlink" xmlns="http://www.w3.org/2000/svg" xml:space="preserve" width="100%" xmlns:vectornator="http://vectornator.io" version="1.1" viewBox="0 0 1024 1024">
<metadata>
<vectornator:setting key="DimensionsVisible" value="1"/>
<vectornator:setting key="PencilOnly" value="0"/>
<vectornator:setting key="SnapToPoints" value="0"/>
<vectornator:setting key="OutlineMode" value="0"/>
<vectornator:setting key="CMYKEnabledKey" value="0"/>
<vectornator:setting key="RulersVisible" value="1"/>
<vectornator:setting key="SnapToEdges" value="0"/>
<vectornator:setting key="GuidesVisible" value="1"/>
<vectornator:setting key="DisplayWhiteBackground" value="0"/>
<vectornator:setting key="doHistoryDisabled" value="0"/>
<vectornator:setting key="SnapToGuides" value="1"/>
<vectornator:setting key="TimeLapseWatermarkDisabled" value="0"/>
<vectornator:setting key="Units" value="Pixels"/>
<vectornator:setting key="DynamicGuides" value="1"/>
<vectornator:setting key="IsolateActiveLayer" value="0"/>
<vectornator:setting key="SnapToGrid" value="0"/>
</metadata>
<defs/>
<g id="Layer 1" vectornator:layerName="Layer 1">
<path d="M-5.05029e-06+327.435L564.081+327.435L1024+327.435L1024+696.565L-5.05029e-06+696.565L-5.05029e-06+327.435Z" opacity="1" fill="#18181e"/>
<g opacity="1">
<path d="M15.7949+558.423L15.7949+464.047L91.8199+464.047C96.8883+464.047+101.214+465.839+104.797+469.422C108.379+473.004+110.171+477.286+110.171+482.267L110.171+540.204C110.171+545.184+108.379+549.466+104.797+553.049C101.214+556.632+96.8883+558.423+91.8199+558.423L15.7949+558.423ZM37.6848+540.99L88.1497+540.99C90.5091+540.99+91.8636+540.837+92.2131+540.531C92.5627+540.225+92.7375+538.849+92.7375+536.402L92.7375+486.068C92.7375+483.622+92.5627+482.245+92.2131+481.94C91.8636+481.634+90.5091+481.481+88.1497+481.481L37.6848+481.481C35.238+481.481+33.8617+481.634+33.5559+481.94C33.25+482.245+33.0971+483.622+33.0971+486.068L33.0971+536.402C33.0971+538.849+33.25+540.225+33.5559+540.531C33.8617+540.837+35.238+540.99+37.6848+540.99Z" opacity="1" fill="#ffffff"/>
<path d="M125.114+558.423L125.114+464.047L212.018+464.047L212.018+481.481L142.547+481.481L142.547+502.453L198.386+502.453L198.386+520.018L142.547+520.018L142.547+540.99L212.018+540.99L212.018+558.423L125.114+558.423Z" opacity="1" fill="#ffffff"/>
<path d="M225.257+558.423L225.257+464.178L301.282+464.178C306.35+464.178+310.676+465.992+314.259+469.618C317.842+473.245+319.633+477.505+319.633+482.398L319.633+507.827C319.633+512.808+317.842+517.09+314.259+520.673C310.676+524.256+306.35+526.047+301.282+526.047L242.559+526.178L242.559+558.423L225.257+558.423ZM247.147+508.614L297.612+508.614C299.971+508.614+301.326+508.483+301.675+508.221C302.025+507.958+302.2+506.604+302.2+504.157L302.2+486.068C302.2+483.622+302.025+482.245+301.675+481.94C301.326+481.634+299.971+481.481+297.612+481.481L247.147+481.481C244.7+481.481+243.324+481.634+243.018+481.94C242.712+482.245+242.559+483.622+242.559+486.068L242.559+504.157C242.559+506.604+242.712+507.958+243.018+508.221C243.324+508.483+244.7+508.614+247.147+508.614Z" opacity="1" fill="#ffffff"/>
<path d="M329.071+558.423L329.071+463.916L346.373+463.916L346.373+540.99L423.446+540.99L423.446+558.423L329.071+558.423Z" opacity="1" fill="#ffffff"/>
<path d="M449.007+558.423C444.026+558.423+439.744+556.632+436.161+553.049C432.578+549.466+430.787+545.184+430.787+540.204L430.787+482.267C430.787+477.286+432.578+473.004+436.161+469.422C439.744+465.839+444.026+464.047+449.007+464.047L506.943+464.047C511.924+464.047+516.206+465.839+519.789+469.422C523.371+473.004+525.163+477.286+525.163+482.267L525.163+540.204C525.163+545.184+523.371+549.466+519.789+553.049C516.206+556.632+511.924+558.423+506.943+558.423L449.007+558.423ZM452.677+540.99L503.142+540.99C505.501+540.99+506.856+540.837+507.205+540.531C507.555+540.225+507.729+538.849+507.729+536.402L507.729+486.068C507.729+483.622+507.555+482.245+507.205+481.94C506.856+481.634+505.501+481.481+503.142+481.481L452.677+481.481C450.23+481.481+448.854+481.634+448.548+481.94C448.242+482.245+448.089+483.622+448.089+486.068L448.089+536.402C448.089+538.849+448.242+540.225+448.548+540.531C448.854+540.837+450.23+540.99+452.677+540.99Z" opacity="1" fill="#ffffff"/>
<path d="M577.987+558.423L577.987+523.032L534.469+464.047L554.917+464.047L586.769+504.026L618.359+464.047L639.069+464.047L595.42+523.163L595.42+558.423L577.987+558.423Z" opacity="1" fill="#ffffff"/>
</g>
</g>
</svg>
