<?xml version="1.0" encoding="UTF-8" standalone="no"?> <!-- Created with Vectornator for iOS (http://vectornator.io/) --><!DOCTYPE svg PUBLIC "-//W3C//DTD SVG 1.1//EN" "http://www.w3.org/Graphics/SVG/1.1/DTD/svg11.dtd">
<svg height="100%" style="fill-rule:evenodd;clip-rule:evenodd;stroke-linecap:round;stroke-linejoin:round;" xmlns:xlink="http://www.w3.org/1999/xlink" xmlns="http://www.w3.org/2000/svg" xml:space="preserve" width="100%" xmlns:vectornator="http://vectornator.io" version="1.1" viewBox="0 0 1024 1024">
<metadata>
<vectornator:setting key="DimensionsVisible" value="1"/>
<vectornator:setting key="PencilOnly" value="0"/>
<vectornator:setting key="SnapToPoints" value="0"/>
<vectornator:setting key="OutlineMode" value="0"/>
<vectornator:setting key="CMYKEnabledKey" value="0"/>
<vectornator:setting key="RulersVisible" value="1"/>
<vectornator:setting key="SnapToEdges" value="0"/>
<vectornator:setting key="GuidesVisible" value="1"/>
<vectornator:setting key="DisplayWhiteBackground" value="0"/>
<vectornator:setting key="doHistoryDisabled" value="0"/>
<vectornator:setting key="SnapToGuides" value="1"/>
<vectornator:setting key="TimeLapseWatermarkDisabled" value="0"/>
<vectornator:setting key="Units" value="Pixels"/>
<vectornator:setting key="DynamicGuides" value="1"/>
<vectornator:setting key="IsolateActiveLayer" value="0"/>
<vectornator:setting key="SnapToGrid" value="0"/>
</metadata>
<defs/>
<g id="Layer 1" vectornator:layerName="Layer 1">
<path d="M-5.05029e-06+327.435L564.081+327.435L1024+327.435L1024+696.565L-5.05029e-06+696.565L-5.05029e-06+327.435Z" opacity="1" fill="#18181e"/>
<g opacity="1">
<path d="M208.162+558.423L208.162+464.047L284.187+464.047C289.255+464.047+293.581+465.839+297.164+469.422C300.746+473.004+302.538+477.286+302.538+482.267L302.538+540.204C302.538+545.184+300.746+549.466+297.164+553.049C293.581+556.632+289.255+558.423+284.187+558.423L208.162+558.423ZM230.052+540.99L280.517+540.99C282.876+540.99+284.231+540.837+284.58+540.531C284.93+540.225+285.105+538.849+285.105+536.402L285.105+486.068C285.105+483.622+284.93+482.245+284.58+481.94C284.231+481.634+282.876+481.481+280.517+481.481L230.052+481.481C227.605+481.481+226.229+481.634+225.923+481.94C225.617+482.245+225.464+483.622+225.464+486.068L225.464+536.402C225.464+538.849+225.617+540.225+225.923+540.531C226.229+540.837+227.605+540.99+230.052+540.99Z" opacity="1" fill="#ffffff"/>
<path d="M317.087+558.423L317.087+464.178L393.113+464.178C398.181+464.178+402.506+465.992+406.089+469.618C409.672+473.245+411.463+477.505+411.463+482.398L411.463+507.827C411.463+512.808+409.672+517.09+406.089+520.673C402.506+524.256+398.181+526.047+393.113+526.047L388.001+526.047L411.332+553.573L411.332+558.423L392.457+558.423L365.324+526.047L334.39+526.178L334.39+558.423L317.087+558.423ZM338.977+508.614L389.442+508.614C391.802+508.614+393.134+508.483+393.44+508.221C393.746+507.958+393.899+506.604+393.899+504.157L393.899+486.068C393.899+483.622+393.746+482.245+393.44+481.94C393.134+481.634+391.802+481.481+389.442+481.481L338.977+481.481C336.531+481.481+335.154+481.634+334.849+481.94C334.543+482.245+334.39+483.622+334.39+486.068L334.39+504.157C334.39+506.604+334.543+507.958+334.849+508.221C335.154+508.483+336.531+508.614+338.977+508.614Z" opacity="1" fill="#ffffff"/>
<path d="M424.833+558.423L424.833+464.047L442.005+464.047L442.005+558.423L424.833+558.423Z" opacity="1" fill="#ffffff"/>
<path d="M505.315+558.423L450.656+464.047L470.842+464.047L513.049+537.451L555.387+464.047L575.442+464.047L520.782+558.423L505.315+558.423Z" opacity="1" fill="#ffffff"/>
<path d="M584.355+558.423L584.355+464.047L601.526+464.047L601.526+558.423L584.355+558.423Z" opacity="1" fill="#ffffff"/>
<path d="M612.93+558.423L612.93+464.047L631.936+464.047L689.872+532.994L689.872+464.047L707.306+464.047L707.306+558.423L688.299+558.423L630.232+489.345L630.232+558.423L612.93+558.423Z" opacity="1" fill="#ffffff"/>
<path d="M740.206+558.423C735.225+558.423+730.943+556.632+727.361+553.049C723.778+549.466+721.986+545.184+721.986+540.204L721.986+482.267C721.986+477.286+723.778+473.004+727.361+469.422C730.943+465.839+735.225+464.047+740.206+464.047L798.011+464.047C803.08+464.047+807.405+465.839+810.988+469.422C814.571+473.004+816.362+477.286+816.362+482.267L816.362+489.608L798.929+489.608L798.929+486.068C798.929+483.622+798.754+482.245+798.405+481.94C798.055+481.634+796.701+481.481+794.341+481.481L743.876+481.481C741.43+481.481+740.053+481.634+739.747+481.94C739.442+482.245+739.289+483.622+739.289+486.068L739.289+536.402C739.289+538.849+739.442+540.225+739.747+540.531C740.053+540.837+741.43+540.99+743.876+540.99L794.341+540.99C796.701+540.99+798.055+540.837+798.405+540.531C798.754+540.225+798.929+538.849+798.929+536.402L798.929+522.377L777.563+522.377L777.563+504.944L816.362+504.944L816.362+540.204C816.362+545.184+814.571+549.466+810.988+553.049C807.405+556.632+803.08+558.423+798.011+558.423L740.206+558.423Z" opacity="1" fill="#ffffff"/>
</g>
</g>
</svg>
