<?xml version="1.0" encoding="UTF-8" standalone="no"?> <!-- Created with Vectornator for iOS (http://vectornator.io/) --><!DOCTYPE svg PUBLIC "-//W3C//DTD SVG 1.1//EN" "http://www.w3.org/Graphics/SVG/1.1/DTD/svg11.dtd">
<svg height="100%" style="fill-rule:evenodd;clip-rule:evenodd;stroke-linecap:round;stroke-linejoin:round;" xmlns:xlink="http://www.w3.org/1999/xlink" xmlns="http://www.w3.org/2000/svg" xml:space="preserve" width="100%" xmlns:vectornator="http://vectornator.io" version="1.1" viewBox="0 0 1024 1024">
<metadata>
<vectornator:setting key="DimensionsVisible" value="1"/>
<vectornator:setting key="PencilOnly" value="0"/>
<vectornator:setting key="SnapToPoints" value="0"/>
<vectornator:setting key="OutlineMode" value="0"/>
<vectornator:setting key="CMYKEnabledKey" value="0"/>
<vectornator:setting key="RulersVisible" value="1"/>
<vectornator:setting key="SnapToEdges" value="0"/>
<vectornator:setting key="GuidesVisible" value="1"/>
<vectornator:setting key="DisplayWhiteBackground" value="0"/>
<vectornator:setting key="doHistoryDisabled" value="0"/>
<vectornator:setting key="SnapToGuides" value="1"/>
<vectornator:setting key="TimeLapseWatermarkDisabled" value="0"/>
<vectornator:setting key="Units" value="Pixels"/>
<vectornator:setting key="DynamicGuides" value="1"/>
<vectornator:setting key="IsolateActiveLayer" value="0"/>
<vectornator:setting key="SnapToGrid" value="0"/>
</metadata>
<defs/>
<g id="Layer 1" vectornator:layerName="Layer 1">
<path d="M-5.05029e-06+327.435L564.081+327.435L1024+327.435L1024+696.565L-5.05029e-06+696.565L-5.05029e-06+327.435Z" opacity="1" fill="#18181e"/>
<g opacity="1">
<path d="M15.6638+558.423L15.6638+463.916L32.966+463.916L32.966+540.99L110.04+540.99L110.04+558.423L15.6638+558.423Z" opacity="1" fill="#ffffff"/>
<path d="M117.118+558.423L117.118+464.047L134.289+464.047L134.289+558.423L117.118+558.423Z" opacity="1" fill="#ffffff"/>
<path d="M163.913+558.423C158.932+558.423+154.65+556.632+151.067+553.049C147.484+549.466+145.693+545.184+145.693+540.204L145.693+482.267C145.693+477.286+147.484+473.004+151.067+469.422C154.65+465.839+158.932+464.047+163.913+464.047L221.718+464.047C226.786+464.047+231.112+465.839+234.695+469.422C238.277+473.004+240.069+477.286+240.069+482.267L240.069+489.608L222.635+489.608L222.635+486.068C222.635+483.622+222.461+482.245+222.111+481.94C221.762+481.634+220.407+481.481+218.048+481.481L167.583+481.481C165.136+481.481+163.76+481.634+163.454+481.94C163.148+482.245+162.995+483.622+162.995+486.068L162.995+536.402C162.995+538.849+163.148+540.225+163.454+540.531C163.76+540.837+165.136+540.99+167.583+540.99L218.048+540.99C220.407+540.99+221.762+540.837+222.111+540.531C222.461+540.225+222.635+538.849+222.635+536.402L222.635+522.377L201.27+522.377L201.27+504.944L240.069+504.944L240.069+540.204C240.069+545.184+238.277+549.466+234.695+553.049C231.112+556.632+226.786+558.423+221.718+558.423L163.913+558.423Z" opacity="1" fill="#ffffff"/>
<path d="M254.618+558.423L254.618+464.047L271.921+464.047L271.921+502.453L333.789+502.453L333.789+464.047L351.092+464.047L351.092+558.423L333.789+558.423L333.789+520.018L271.921+520.018L271.921+558.423L254.618+558.423Z" opacity="1" fill="#ffffff"/>
<path d="M399.852+558.423L399.852+481.481L361.316+481.481L361.316+464.047L455.692+464.047L455.692+481.481L417.286+481.481L417.286+558.423L399.852+558.423Z" opacity="1" fill="#ffffff"/>
<path d="M483.349+558.423C478.368+558.423+474.086+556.632+470.503+553.049C466.921+549.466+465.129+545.184+465.129+540.204L465.129+532.994L482.431+532.994L482.431+536.402C482.431+538.849+482.584+540.225+482.89+540.531C483.196+540.837+484.572+540.99+487.019+540.99L537.484+540.99C539.931+540.99+541.307+540.837+541.613+540.531C541.919+540.225+542.072+538.849+542.072+536.402L542.072+524.474C542.072+522.027+541.919+520.673+541.613+520.411C541.307+520.149+539.931+520.018+537.484+520.018L483.349+520.018C478.368+520.018+474.086+518.204+470.503+514.578C466.921+510.951+465.129+506.648+465.129+501.667L465.129+482.267C465.129+477.286+466.921+473.004+470.503+469.422C474.086+465.839+478.368+464.047+483.349+464.047L541.285+464.047C546.266+464.047+550.548+465.839+554.131+469.422C557.714+473.004+559.505+477.286+559.505+482.267L559.505+489.476L542.072+489.476L542.072+486.068C542.072+483.622+541.919+482.245+541.613+481.94C541.307+481.634+539.931+481.481+537.484+481.481L487.019+481.481C484.572+481.481+483.196+481.634+482.89+481.94C482.584+482.245+482.431+483.622+482.431+486.068L482.431+497.997C482.431+500.443+482.584+501.798+482.89+502.06C483.196+502.322+484.572+502.453+487.019+502.453L541.285+502.453C546.266+502.453+550.548+504.266+554.131+507.893C557.714+511.519+559.505+515.823+559.505+520.804L559.505+540.204C559.505+545.184+557.714+549.466+554.131+553.049C550.548+556.632+546.266+558.423+541.285+558.423L483.349+558.423Z" opacity="1" fill="#ffffff"/>
</g>
</g>
</svg>
