<svg width="73" height="73" viewBox="0 0 73 73" fill="none" xmlns="http://www.w3.org/2000/svg">
<rect x="0.488159" y="0.605103" width="72.0323" height="72.0323" fill="#19181E"/>
<path fill-rule="evenodd" clip-rule="evenodd" d="M23.7377 16.8483H57.1217V21.2579H57.1217V49.8723V50.7828C57.1215 50.6316 57.1167 50.4815 57.1075 50.3326C56.8679 54.1642 53.6319 56.3942 49.6751 56.3942C45.5624 56.3942 42.2284 53.985 42.2284 49.8723C42.2284 45.7596 45.5624 43.3503 49.6751 43.3503C50.5158 43.3503 51.3241 43.451 52.0779 43.6464V23.3215H28.7802L28.7802 48.6992V49.6098C28.7799 49.4586 28.7751 49.3085 28.766 49.1596C28.5263 52.9911 25.2903 55.2212 21.3335 55.2212C17.2208 55.2212 13.8868 52.8119 13.8868 48.6992C13.8868 44.5866 17.2208 42.1773 21.3335 42.1773C22.1743 42.1773 22.9825 42.278 23.7363 42.4733V20.0849H23.7377V16.8483Z" fill="white"/>
</svg>
