<?xml version="1.0" encoding="UTF-8" standalone="no"?> <!-- Created with Vectornator for iOS (http://vectornator.io/) --><!DOCTYPE svg PUBLIC "-//W3C//DTD SVG 1.1//EN" "http://www.w3.org/Graphics/SVG/1.1/DTD/svg11.dtd">
<svg height="100%" style="fill-rule:evenodd;clip-rule:evenodd;stroke-linecap:round;stroke-linejoin:round;" xmlns:xlink="http://www.w3.org/1999/xlink" xmlns="http://www.w3.org/2000/svg" xml:space="preserve" width="100%" xmlns:vectornator="http://vectornator.io" version="1.1" viewBox="0 0 1024 1024">
<metadata>
<vectornator:setting key="DimensionsVisible" value="1"/>
<vectornator:setting key="PencilOnly" value="0"/>
<vectornator:setting key="SnapToPoints" value="0"/>
<vectornator:setting key="OutlineMode" value="0"/>
<vectornator:setting key="CMYKEnabledKey" value="0"/>
<vectornator:setting key="RulersVisible" value="1"/>
<vectornator:setting key="SnapToEdges" value="0"/>
<vectornator:setting key="GuidesVisible" value="1"/>
<vectornator:setting key="DisplayWhiteBackground" value="0"/>
<vectornator:setting key="doHistoryDisabled" value="0"/>
<vectornator:setting key="SnapToGuides" value="1"/>
<vectornator:setting key="TimeLapseWatermarkDisabled" value="0"/>
<vectornator:setting key="Units" value="Pixels"/>
<vectornator:setting key="DynamicGuides" value="1"/>
<vectornator:setting key="IsolateActiveLayer" value="0"/>
<vectornator:setting key="SnapToGrid" value="0"/>
</metadata>
<defs/>
<g id="Layer 1" vectornator:layerName="Layer 1">
<path d="M-5.05029e-06+327.435L564.081+327.435L1024+327.435L1024+696.565L-5.05029e-06+696.565L-5.05029e-06+327.435Z" opacity="1" fill="#18181e"/>
<g opacity="1">
<path d="M33.4903+558.423C28.5094+558.423+24.2275+556.632+20.6447+553.049C17.0619+549.466+15.2705+545.184+15.2705+540.204L15.2705+482.267C15.2705+477.286+17.0619+473.004+20.6447+469.422C24.2275+465.839+28.5094+464.047+33.4903+464.047L91.4267+464.047C96.4076+464.047+100.69+465.839+104.272+469.422C107.855+473.004+109.646+477.286+109.646+482.267L109.646+540.204C109.646+545.184+107.855+549.466+104.272+553.049C100.69+556.632+96.4076+558.423+91.4267+558.423L33.4903+558.423ZM37.1605+540.99L87.6254+540.99C89.9848+540.99+91.3393+540.837+91.6888+540.531C92.0384+540.225+92.2131+538.849+92.2131+536.402L92.2131+486.068C92.2131+483.622+92.0384+482.245+91.6888+481.94C91.3393+481.634+89.9848+481.481+87.6254+481.481L37.1605+481.481C34.7137+481.481+33.3374+481.634+33.0316+481.94C32.7257+482.245+32.5728+483.622+32.5728+486.068L32.5728+536.402C32.5728+538.849+32.7257+540.225+33.0316+540.531C33.3374+540.837+34.7137+540.99+37.1605+540.99Z" opacity="1" fill="#ffffff"/>
<path d="M124.327+558.423L124.327+464.047L211.232+464.047L211.232+481.481L141.761+481.481L141.761+502.453L197.6+502.453L197.6+520.018L141.761+520.018L141.761+558.423L124.327+558.423Z" opacity="1" fill="#ffffff"/>
<path d="M219.096+558.423L219.096+464.047L306.001+464.047L306.001+481.481L236.53+481.481L236.53+502.453L292.369+502.453L292.369+520.018L236.53+520.018L236.53+558.423L219.096+558.423Z" opacity="1" fill="#ffffff"/>
<path d="M353.582+558.423L353.582+464.178L429.607+464.178C434.675+464.178+439.001+465.992+442.584+469.618C446.167+473.245+447.958+477.505+447.958+482.398L447.958+507.827C447.958+512.808+446.167+517.09+442.584+520.673C439.001+524.256+434.675+526.047+429.607+526.047L424.495+526.047L447.827+553.573L447.827+558.423L428.952+558.423L401.819+526.047L370.884+526.178L370.884+558.423L353.582+558.423ZM375.472+508.614L425.937+508.614C428.296+508.614+429.629+508.483+429.935+508.221C430.241+507.958+430.394+506.604+430.394+504.157L430.394+486.068C430.394+483.622+430.241+482.245+429.935+481.94C429.629+481.634+428.296+481.481+425.937+481.481L375.472+481.481C373.025+481.481+371.649+481.634+371.343+481.94C371.037+482.245+370.884+483.622+370.884+486.068L370.884+504.157C370.884+506.604+371.037+507.958+371.343+508.221C371.649+508.483+373.025+508.614+375.472+508.614Z" opacity="1" fill="#ffffff"/>
<path d="M479.81+558.423C474.829+558.423+470.547+556.632+466.964+553.049C463.381+549.466+461.59+545.184+461.59+540.204L461.59+482.267C461.59+477.286+463.381+473.004+466.964+469.422C470.547+465.839+474.829+464.047+479.81+464.047L537.746+464.047C542.727+464.047+547.009+465.839+550.592+469.422C554.175+473.004+555.966+477.286+555.966+482.267L555.966+540.204C555.966+545.184+554.175+549.466+550.592+553.049C547.009+556.632+542.727+558.423+537.746+558.423L479.81+558.423ZM483.48+540.99L533.945+540.99C536.304+540.99+537.659+540.837+538.008+540.531C538.358+540.225+538.533+538.849+538.533+536.402L538.533+486.068C538.533+483.622+538.358+482.245+538.008+481.94C537.659+481.634+536.304+481.481+533.945+481.481L483.48+481.481C481.033+481.481+479.657+481.634+479.351+481.94C479.045+482.245+478.892+483.622+478.892+486.068L478.892+536.402C478.892+538.849+479.045+540.225+479.351+540.531C479.657+540.837+481.033+540.99+483.48+540.99Z" opacity="1" fill="#ffffff"/>
<path d="M570.647+558.423L570.647+482.267C570.647+477.286+572.438+473.004+576.021+469.422C579.604+465.839+583.886+464.047+588.866+464.047L646.672+464.047C651.74+464.047+656.066+465.839+659.648+469.422C663.231+473.004+665.023+477.286+665.023+482.267L665.023+558.423L647.589+558.423L647.589+526.703L587.949+526.703L587.949+558.423L570.647+558.423ZM587.949+509.4L647.589+509.4L647.589+486.068C647.589+483.622+647.415+482.245+647.065+481.94C646.715+481.634+645.361+481.481+643.002+481.481L592.537+481.481C590.09+481.481+588.714+481.634+588.408+481.94C588.102+482.245+587.949+483.622+587.949+486.068L587.949+509.4Z" opacity="1" fill="#ffffff"/>
<path d="M680.228+558.423L680.228+464.047L756.253+464.047C761.321+464.047+765.647+465.839+769.229+469.422C772.812+473.004+774.604+477.286+774.604+482.267L774.604+540.204C774.604+545.184+772.812+549.466+769.229+553.049C765.647+556.632+761.321+558.423+756.253+558.423L680.228+558.423ZM702.118+540.99L752.583+540.99C754.942+540.99+756.296+540.837+756.646+540.531C756.995+540.225+757.17+538.849+757.17+536.402L757.17+486.068C757.17+483.622+756.995+482.245+756.646+481.94C756.296+481.634+754.942+481.481+752.583+481.481L702.118+481.481C699.671+481.481+698.294+481.634+697.989+481.94C697.683+482.245+697.53+483.622+697.53+486.068L697.53+536.402C697.53+538.849+697.683+540.225+697.989+540.531C698.294+540.837+699.671+540.99+702.118+540.99Z" opacity="1" fill="#ffffff"/>
</g>
</g>
</svg>
