<?xml version="1.0" encoding="UTF-8" standalone="no"?> <!-- Created with Vectornator for iOS (http://vectornator.io/) --><!DOCTYPE svg PUBLIC "-//W3C//DTD SVG 1.1//EN" "http://www.w3.org/Graphics/SVG/1.1/DTD/svg11.dtd">
<svg height="100%" style="fill-rule:evenodd;clip-rule:evenodd;stroke-linecap:round;stroke-linejoin:round;" xmlns:xlink="http://www.w3.org/1999/xlink" xmlns="http://www.w3.org/2000/svg" xml:space="preserve" width="100%" xmlns:vectornator="http://vectornator.io" version="1.1" viewBox="0 0 1024 1024">
<metadata>
<vectornator:setting key="DimensionsVisible" value="1"/>
<vectornator:setting key="PencilOnly" value="0"/>
<vectornator:setting key="SnapToPoints" value="0"/>
<vectornator:setting key="OutlineMode" value="0"/>
<vectornator:setting key="CMYKEnabledKey" value="0"/>
<vectornator:setting key="RulersVisible" value="1"/>
<vectornator:setting key="SnapToEdges" value="0"/>
<vectornator:setting key="GuidesVisible" value="1"/>
<vectornator:setting key="DisplayWhiteBackground" value="0"/>
<vectornator:setting key="doHistoryDisabled" value="0"/>
<vectornator:setting key="SnapToGuides" value="1"/>
<vectornator:setting key="TimeLapseWatermarkDisabled" value="0"/>
<vectornator:setting key="Units" value="Pixels"/>
<vectornator:setting key="DynamicGuides" value="1"/>
<vectornator:setting key="IsolateActiveLayer" value="0"/>
<vectornator:setting key="SnapToGrid" value="0"/>
</metadata>
<defs/>
<g id="Layer 1" vectornator:layerName="Layer 1">
<path d="M-5.05029e-06+327.435L564.081+327.435L1024+327.435L1024+696.565L-5.05029e-06+696.565L-5.05029e-06+327.435Z" opacity="1" fill="#18181e"/>
<g opacity="1">
<path d="M15.4016+558.423L15.4016+464.178L91.4267+464.178C96.495+464.178+100.821+465.992+104.403+469.618C107.986+473.245+109.778+477.505+109.778+482.398L109.778+507.827C109.778+512.808+107.986+517.09+104.403+520.673C100.821+524.256+96.495+526.047+91.4267+526.047L86.3147+526.047L109.646+553.573L109.646+558.423L90.7713+558.423L63.6382+526.047L32.7039+526.178L32.7039+558.423L15.4016+558.423ZM37.2916+508.614L87.7565+508.614C90.1159+508.614+91.4485+508.483+91.7544+508.221C92.0602+507.958+92.2131+506.604+92.2131+504.157L92.2131+486.068C92.2131+483.622+92.0602+482.245+91.7544+481.94C91.4485+481.634+90.1159+481.481+87.7565+481.481L37.2916+481.481C34.8448+481.481+33.4685+481.634+33.1627+481.94C32.8568+482.245+32.7039+483.622+32.7039+486.068L32.7039+504.157C32.7039+506.604+32.8568+507.958+33.1627+508.221C33.4685+508.483+34.8448+508.614+37.2916+508.614Z" opacity="1" fill="#ffffff"/>
<path d="M123.934+558.423L123.934+464.047L210.838+464.047L210.838+481.481L141.367+481.481L141.367+502.453L197.206+502.453L197.206+520.018L141.367+520.018L141.367+540.99L210.838+540.99L210.838+558.423L123.934+558.423Z" opacity="1" fill="#ffffff"/>
<path d="M257.895+558.423L257.895+481.481L219.358+481.481L219.358+464.047L313.734+464.047L313.734+481.481L275.329+481.481L275.329+558.423L257.895+558.423Z" opacity="1" fill="#ffffff"/>
<path d="M323.434+558.423L323.434+464.178L399.459+464.178C404.528+464.178+408.853+465.992+412.436+469.618C416.019+473.245+417.81+477.505+417.81+482.398L417.81+507.827C417.81+512.808+416.019+517.09+412.436+520.673C408.853+524.256+404.528+526.047+399.459+526.047L394.347+526.047L417.679+553.573L417.679+558.423L398.804+558.423L371.671+526.047L340.736+526.178L340.736+558.423L323.434+558.423ZM345.324+508.614L395.789+508.614C398.148+508.614+399.481+508.483+399.787+508.221C400.093+507.958+400.246+506.604+400.246+504.157L400.246+486.068C400.246+483.622+400.093+482.245+399.787+481.94C399.481+481.634+398.148+481.481+395.789+481.481L345.324+481.481C342.877+481.481+341.501+481.634+341.195+481.94C340.889+482.245+340.736+483.622+340.736+486.068L340.736+504.157C340.736+506.604+340.889+507.958+341.195+508.221C341.501+508.483+342.877+508.614+345.324+508.614Z" opacity="1" fill="#ffffff"/>
<path d="M431.966+558.423L431.966+482.267C431.966+477.286+433.758+473.004+437.341+469.422C440.923+465.839+445.205+464.047+450.186+464.047L507.992+464.047C513.06+464.047+517.385+465.839+520.968+469.422C524.551+473.004+526.342+477.286+526.342+482.267L526.342+558.423L508.909+558.423L508.909+526.703L449.269+526.703L449.269+558.423L431.966+558.423ZM449.269+509.4L508.909+509.4L508.909+486.068C508.909+483.622+508.734+482.245+508.385+481.94C508.035+481.634+506.681+481.481+504.321+481.481L453.856+481.481C451.41+481.481+450.033+481.634+449.728+481.94C449.422+482.245+449.269+483.622+449.269+486.068L449.269+509.4Z" opacity="1" fill="#ffffff"/>
<path d="M559.505+558.423C554.524+558.423+550.242+556.632+546.659+553.049C543.077+549.466+541.285+545.184+541.285+540.204L541.285+482.267C541.285+477.286+543.077+473.004+546.659+469.422C550.242+465.839+554.524+464.047+559.505+464.047L635.399+464.047L635.399+481.481L563.175+481.481C560.728+481.481+559.352+481.634+559.046+481.94C558.74+482.245+558.588+483.622+558.588+486.068L558.588+536.402C558.588+538.849+558.74+540.225+559.046+540.531C559.352+540.837+560.728+540.99+563.175+540.99L635.399+540.99L635.399+558.423L559.505+558.423Z" opacity="1" fill="#ffffff"/>
<path d="M682.849+558.423L682.849+481.481L644.312+481.481L644.312+464.047L738.688+464.047L738.688+481.481L700.283+481.481L700.283+558.423L682.849+558.423Z" opacity="1" fill="#ffffff"/>
</g>
</g>
</svg>
