<svg width="1455" height="1279" viewBox="0 0 1455 1279" fill="none" xmlns="http://www.w3.org/2000/svg">
<path fill-rule="evenodd" clip-rule="evenodd" d="M619.019 0.793152H624.056L467.151 1278.69H462.113L619.019 0.793152ZM550.827 0.793152H555.912L319.069 1278.69H313.984L550.827 0.793152ZM483.234 0.793152H488.387L169.773 1278.69H164.62L483.234 0.793152ZM416.005 0.793152L421.262 0.792297L6.0498 1278.69H0.79248L416.005 0.793152ZM643.048 1278.69L687.673 0.793152H692.676L648.051 1278.69H643.048ZM812.272 1278.69H807.269L762.644 0.793152H767.647L812.272 1278.69ZM993.207 1278.69H988.169L831.264 0.793152H836.301L993.207 1278.69ZM1141.34 1278.69H1136.25L899.408 0.793152H904.493L1141.34 1278.69ZM1290.7 1278.69H1285.55L966.933 0.793152H972.086L1290.7 1278.69ZM1454.53 1278.69H1449.27L1034.06 0.793152H1039.31L1454.53 1278.69Z" fill="url(#paint0_linear)" fill-opacity="0.3"/>
<defs>
<linearGradient id="paint0_linear" x1="727.66" y1="-66.1755" x2="727.66" y2="1297.23" gradientUnits="userSpaceOnUse">
<stop stop-color="#7B7C80" stop-opacity="0"/>
<stop offset="0.411458" stop-color="#7B7C80"/>
<stop offset="0.859375" stop-color="#7B7C80" stop-opacity="0"/>
</linearGradient>
</defs>
</svg>
