<svg width="73" height="73" viewBox="0 0 73 73" fill="none" xmlns="http://www.w3.org/2000/svg">
<rect x="0.488159" y="0.0563049" width="72.0323" height="72.0323" fill="#19181E"/>
<path fill-rule="evenodd" clip-rule="evenodd" d="M16.1996 28.8818C15.5032 28.5031 15.5032 27.5035 16.1994 27.1248L36.0266 16.3428C36.3244 16.1808 36.6841 16.1808 36.982 16.3428L56.8091 27.1248C57.5055 27.5035 57.5054 28.5031 56.8091 28.8818L36.982 39.6633C36.6841 39.8252 36.3244 39.8252 36.0266 39.6633L16.1996 28.8818ZM17.5619 32.7615L14.5799 34.383C13.8837 34.7617 13.8837 35.7614 14.5801 36.14L36.0266 47.8021C36.3244 47.9641 36.6842 47.9641 36.982 47.8021L58.4286 36.14C59.125 35.7614 59.125 34.7617 58.4286 34.383L55.4468 32.7615L36.982 42.8021C36.6842 42.9641 36.3244 42.9641 36.0266 42.8021L17.5619 32.7615ZM14.5799 42.383L17.5619 40.7615L36.0266 50.8021C36.3244 50.9641 36.6842 50.9641 36.982 50.8021L55.4468 40.7615L58.4286 42.383C59.125 42.7617 59.125 43.7614 58.4286 44.14L36.982 55.8021C36.6842 55.9641 36.3244 55.9641 36.0266 55.8021L14.5801 44.14C13.8837 43.7614 13.8837 42.7617 14.5799 42.383Z" fill="white"/>
</svg>
