<?xml version="1.0" encoding="UTF-8" standalone="no"?> <!-- Created with Vectornator for iOS (http://vectornator.io/) --><!DOCTYPE svg PUBLIC "-//W3C//DTD SVG 1.1//EN" "http://www.w3.org/Graphics/SVG/1.1/DTD/svg11.dtd">
<svg height="100%" style="fill-rule:evenodd;clip-rule:evenodd;stroke-linecap:round;stroke-linejoin:round;" xmlns:xlink="http://www.w3.org/1999/xlink" xmlns="http://www.w3.org/2000/svg" xml:space="preserve" width="100%" xmlns:vectornator="http://vectornator.io" version="1.1" viewBox="0 0 1024 1024">
<metadata>
<vectornator:setting key="DimensionsVisible" value="1"/>
<vectornator:setting key="PencilOnly" value="0"/>
<vectornator:setting key="SnapToPoints" value="0"/>
<vectornator:setting key="OutlineMode" value="0"/>
<vectornator:setting key="CMYKEnabledKey" value="0"/>
<vectornator:setting key="RulersVisible" value="1"/>
<vectornator:setting key="SnapToEdges" value="0"/>
<vectornator:setting key="GuidesVisible" value="1"/>
<vectornator:setting key="DisplayWhiteBackground" value="0"/>
<vectornator:setting key="doHistoryDisabled" value="0"/>
<vectornator:setting key="SnapToGuides" value="1"/>
<vectornator:setting key="TimeLapseWatermarkDisabled" value="0"/>
<vectornator:setting key="Units" value="Pixels"/>
<vectornator:setting key="DynamicGuides" value="1"/>
<vectornator:setting key="IsolateActiveLayer" value="0"/>
<vectornator:setting key="SnapToGrid" value="0"/>
</metadata>
<defs/>
<g id="Layer 1" vectornator:layerName="Layer 1">
<path d="M-5.05029e-06+327.435L564.081+327.435L1024+327.435L1024+696.565L-5.05029e-06+696.565L-5.05029e-06+327.435Z" opacity="1" fill="#18181e"/>
<g opacity="1">
<path d="M33.3593+558.423C28.3783+558.423+24.0964+556.632+20.5137+553.049C16.9309+549.466+15.1395+545.184+15.1395+540.204L15.1395+532.994L32.4417+532.994L32.4417+536.402C32.4417+538.849+32.5946+540.225+32.9005+540.531C33.2063+540.837+34.5827+540.99+37.0294+540.99L87.4944+540.99C89.9411+540.99+91.3175+540.837+91.6233+540.531C91.9291+540.225+92.0821+538.849+92.0821+536.402L92.0821+524.474C92.0821+522.027+91.9291+520.673+91.6233+520.411C91.3175+520.149+89.9411+520.018+87.4944+520.018L33.3593+520.018C28.3783+520.018+24.0964+518.204+20.5137+514.578C16.9309+510.951+15.1395+506.648+15.1395+501.667L15.1395+482.267C15.1395+477.286+16.9309+473.004+20.5137+469.422C24.0964+465.839+28.3783+464.047+33.3593+464.047L91.2956+464.047C96.2766+464.047+100.558+465.839+104.141+469.422C107.724+473.004+109.515+477.286+109.515+482.267L109.515+489.476L92.0821+489.476L92.0821+486.068C92.0821+483.622+91.9291+482.245+91.6233+481.94C91.3175+481.634+89.9411+481.481+87.4944+481.481L37.0294+481.481C34.5827+481.481+33.2063+481.634+32.9005+481.94C32.5946+482.245+32.4417+483.622+32.4417+486.068L32.4417+497.997C32.4417+500.443+32.5946+501.798+32.9005+502.06C33.2063+502.322+34.5827+502.453+37.0294+502.453L91.2956+502.453C96.2766+502.453+100.558+504.266+104.141+507.893C107.724+511.519+109.515+515.823+109.515+520.804L109.515+540.204C109.515+545.184+107.724+549.466+104.141+553.049C100.558+556.632+96.2766+558.423+91.2956+558.423L33.3593+558.423Z" opacity="1" fill="#ffffff"/>
<path d="M157.621+558.423L157.621+481.481L119.084+481.481L119.084+464.047L213.46+464.047L213.46+481.481L175.054+481.481L175.054+558.423L157.621+558.423Z" opacity="1" fill="#ffffff"/>
<path d="M223.553+558.423L223.553+482.267C223.553+477.286+225.344+473.004+228.927+469.422C232.51+465.839+236.792+464.047+241.773+464.047L299.578+464.047C304.646+464.047+308.972+465.839+312.555+469.422C316.138+473.004+317.929+477.286+317.929+482.267L317.929+558.423L300.496+558.423L300.496+526.703L240.855+526.703L240.855+558.423L223.553+558.423ZM240.855+509.4L300.496+509.4L300.496+486.068C300.496+483.622+300.321+482.245+299.971+481.94C299.622+481.634+298.267+481.481+295.908+481.481L245.443+481.481C242.996+481.481+241.62+481.634+241.314+481.94C241.008+482.245+240.855+483.622+240.855+486.068L240.855+509.4Z" opacity="1" fill="#ffffff"/>
<path d="M332.872+558.423L332.872+464.047L351.878+464.047L409.814+532.994L409.814+464.047L427.248+464.047L427.248+558.423L408.241+558.423L350.174+489.345L350.174+558.423L332.872+558.423Z" opacity="1" fill="#ffffff"/>
<path d="M442.191+558.423L442.191+464.047L518.216+464.047C523.284+464.047+527.61+465.839+531.192+469.422C534.775+473.004+536.566+477.286+536.566+482.267L536.566+540.204C536.566+545.184+534.775+549.466+531.192+553.049C527.61+556.632+523.284+558.423+518.216+558.423L442.191+558.423ZM464.081+540.99L514.545+540.99C516.905+540.99+518.259+540.837+518.609+540.531C518.958+540.225+519.133+538.849+519.133+536.402L519.133+486.068C519.133+483.622+518.958+482.245+518.609+481.94C518.259+481.634+516.905+481.481+514.545+481.481L464.081+481.481C461.634+481.481+460.257+481.634+459.952+481.94C459.646+482.245+459.493+483.622+459.493+486.068L459.493+536.402C459.493+538.849+459.646+540.225+459.952+540.531C460.257+540.837+461.634+540.99+464.081+540.99Z" opacity="1" fill="#ffffff"/>
<path d="M551.509+558.423L551.509+482.267C551.509+477.286+553.301+473.004+556.884+469.422C560.466+465.839+564.748+464.047+569.729+464.047L627.534+464.047C632.603+464.047+636.928+465.839+640.511+469.422C644.094+473.004+645.885+477.286+645.885+482.267L645.885+558.423L628.452+558.423L628.452+526.703L568.812+526.703L568.812+558.423L551.509+558.423ZM568.812+509.4L628.452+509.4L628.452+486.068C628.452+483.622+628.277+482.245+627.928+481.94C627.578+481.634+626.224+481.481+623.864+481.481L573.399+481.481C570.953+481.481+569.576+481.634+569.27+481.94C568.965+482.245+568.812+483.622+568.812+486.068L568.812+509.4Z" opacity="1" fill="#ffffff"/>
<path d="M660.697+558.423L660.697+464.178L736.722+464.178C741.79+464.178+746.116+465.992+749.699+469.618C753.282+473.245+755.073+477.505+755.073+482.398L755.073+507.827C755.073+512.808+753.282+517.09+749.699+520.673C746.116+524.256+741.79+526.047+736.722+526.047L731.61+526.047L754.942+553.573L754.942+558.423L736.067+558.423L708.934+526.047L677.999+526.178L677.999+558.423L660.697+558.423ZM682.587+508.614L733.052+508.614C735.411+508.614+736.744+508.483+737.05+508.221C737.356+507.958+737.509+506.604+737.509+504.157L737.509+486.068C737.509+483.622+737.356+482.245+737.05+481.94C736.744+481.634+735.411+481.481+733.052+481.481L682.587+481.481C680.14+481.481+678.764+481.634+678.458+481.94C678.152+482.245+677.999+483.622+677.999+486.068L677.999+504.157C677.999+506.604+678.152+507.958+678.458+508.221C678.764+508.483+680.14+508.614+682.587+508.614Z" opacity="1" fill="#ffffff"/>
<path d="M769.229+558.423L769.229+464.047L845.254+464.047C850.323+464.047+854.648+465.839+858.231+469.422C861.814+473.004+863.605+477.286+863.605+482.267L863.605+540.204C863.605+545.184+861.814+549.466+858.231+553.049C854.648+556.632+850.323+558.423+845.254+558.423L769.229+558.423ZM791.119+540.99L841.584+540.99C843.944+540.99+845.298+540.837+845.648+540.531C845.997+540.225+846.172+538.849+846.172+536.402L846.172+486.068C846.172+483.622+845.997+482.245+845.648+481.94C845.298+481.634+843.944+481.481+841.584+481.481L791.119+481.481C788.673+481.481+787.296+481.634+786.99+481.94C786.685+482.245+786.532+483.622+786.532+486.068L786.532+536.402C786.532+538.849+786.685+540.225+786.99+540.531C787.296+540.837+788.673+540.99+791.119+540.99Z" opacity="1" fill="#ffffff"/>
</g>
</g>
</svg>
