<?xml version="1.0" encoding="UTF-8" standalone="no"?> <!-- Created with Vectornator for iOS (http://vectornator.io/) --><!DOCTYPE svg PUBLIC "-//W3C//DTD SVG 1.1//EN" "http://www.w3.org/Graphics/SVG/1.1/DTD/svg11.dtd">
<svg height="100%" style="fill-rule:evenodd;clip-rule:evenodd;stroke-linecap:round;stroke-linejoin:round;" xmlns:xlink="http://www.w3.org/1999/xlink" xmlns="http://www.w3.org/2000/svg" xml:space="preserve" width="100%" xmlns:vectornator="http://vectornator.io" version="1.1" viewBox="0 0 1024 1024">
<metadata>
<vectornator:setting key="DimensionsVisible" value="1"/>
<vectornator:setting key="PencilOnly" value="0"/>
<vectornator:setting key="SnapToPoints" value="0"/>
<vectornator:setting key="OutlineMode" value="0"/>
<vectornator:setting key="CMYKEnabledKey" value="0"/>
<vectornator:setting key="RulersVisible" value="1"/>
<vectornator:setting key="SnapToEdges" value="0"/>
<vectornator:setting key="GuidesVisible" value="1"/>
<vectornator:setting key="DisplayWhiteBackground" value="0"/>
<vectornator:setting key="doHistoryDisabled" value="0"/>
<vectornator:setting key="SnapToGuides" value="1"/>
<vectornator:setting key="TimeLapseWatermarkDisabled" value="0"/>
<vectornator:setting key="Units" value="Pixels"/>
<vectornator:setting key="DynamicGuides" value="1"/>
<vectornator:setting key="IsolateActiveLayer" value="0"/>
<vectornator:setting key="SnapToGrid" value="0"/>
</metadata>
<defs/>
<g id="Layer 1" vectornator:layerName="Layer 1">
<path d="M-5.05029e-06+327.435L564.081+327.435L1024+327.435L1024+696.565L-5.05029e-06+696.565L-5.05029e-06+327.435Z" opacity="1" fill="#18181e"/>
<g opacity="1">
<path d="M33.3593+558.423C28.3783+558.423+24.0964+556.632+20.5137+553.049C16.9309+549.466+15.1395+545.184+15.1395+540.204L15.1395+532.994L32.4417+532.994L32.4417+536.402C32.4417+538.849+32.5946+540.225+32.9005+540.531C33.2063+540.837+34.5827+540.99+37.0294+540.99L87.4944+540.99C89.9411+540.99+91.3175+540.837+91.6233+540.531C91.9291+540.225+92.0821+538.849+92.0821+536.402L92.0821+524.474C92.0821+522.027+91.9291+520.673+91.6233+520.411C91.3175+520.149+89.9411+520.018+87.4944+520.018L33.3593+520.018C28.3783+520.018+24.0964+518.204+20.5137+514.578C16.9309+510.951+15.1395+506.648+15.1395+501.667L15.1395+482.267C15.1395+477.286+16.9309+473.004+20.5137+469.422C24.0964+465.839+28.3783+464.047+33.3593+464.047L91.2956+464.047C96.2766+464.047+100.558+465.839+104.141+469.422C107.724+473.004+109.515+477.286+109.515+482.267L109.515+489.476L92.0821+489.476L92.0821+486.068C92.0821+483.622+91.9291+482.245+91.6233+481.94C91.3175+481.634+89.9411+481.481+87.4944+481.481L37.0294+481.481C34.5827+481.481+33.2063+481.634+32.9005+481.94C32.5946+482.245+32.4417+483.622+32.4417+486.068L32.4417+497.997C32.4417+500.443+32.5946+501.798+32.9005+502.06C33.2063+502.322+34.5827+502.453+37.0294+502.453L91.2956+502.453C96.2766+502.453+100.558+504.266+104.141+507.893C107.724+511.519+109.515+515.823+109.515+520.804L109.515+540.204C109.515+545.184+107.724+549.466+104.141+553.049C100.558+556.632+96.2766+558.423+91.2956+558.423L33.3593+558.423Z" opacity="1" fill="#ffffff"/>
<path d="M157.621+558.423L157.621+481.481L119.084+481.481L119.084+464.047L213.46+464.047L213.46+481.481L175.054+481.481L175.054+558.423L157.621+558.423Z" opacity="1" fill="#ffffff"/>
<path d="M241.248+558.423C236.268+558.423+231.986+556.632+228.403+553.049C224.82+549.466+223.029+545.184+223.029+540.204L223.029+482.267C223.029+477.286+224.82+473.004+228.403+469.422C231.986+465.839+236.268+464.047+241.248+464.047L299.185+464.047C304.166+464.047+308.448+465.839+312.03+469.422C315.613+473.004+317.405+477.286+317.405+482.267L317.405+540.204C317.405+545.184+315.613+549.466+312.03+553.049C308.448+556.632+304.166+558.423+299.185+558.423L241.248+558.423ZM244.919+540.99L295.384+540.99C297.743+540.99+299.097+540.837+299.447+540.531C299.797+540.225+299.971+538.849+299.971+536.402L299.971+486.068C299.971+483.622+299.797+482.245+299.447+481.94C299.097+481.634+297.743+481.481+295.384+481.481L244.919+481.481C242.472+481.481+241.096+481.634+240.79+481.94C240.484+482.245+240.331+483.622+240.331+486.068L240.331+536.402C240.331+538.849+240.484+540.225+240.79+540.531C241.096+540.837+242.472+540.99+244.919+540.99Z" opacity="1" fill="#ffffff"/>
<path d="M331.823+558.423L331.823+464.178L407.848+464.178C412.917+464.178+417.242+465.992+420.825+469.618C424.408+473.245+426.199+477.505+426.199+482.398L426.199+507.827C426.199+512.808+424.408+517.09+420.825+520.673C417.242+524.256+412.917+526.047+407.848+526.047L349.125+526.178L349.125+558.423L331.823+558.423ZM353.713+508.614L404.178+508.614C406.537+508.614+407.892+508.483+408.241+508.221C408.591+507.958+408.766+506.604+408.766+504.157L408.766+486.068C408.766+483.622+408.591+482.245+408.241+481.94C407.892+481.634+406.537+481.481+404.178+481.481L353.713+481.481C351.266+481.481+349.89+481.634+349.584+481.94C349.278+482.245+349.125+483.622+349.125+486.068L349.125+504.157C349.125+506.604+349.278+507.958+349.584+508.221C349.89+508.483+351.266+508.614+353.713+508.614Z" opacity="1" fill="#ffffff"/>
</g>
</g>
</svg>
