<?xml version="1.0" encoding="UTF-8" standalone="no"?> <!-- Created with Vectornator for iOS (http://vectornator.io/) --><!DOCTYPE svg PUBLIC "-//W3C//DTD SVG 1.1//EN" "http://www.w3.org/Graphics/SVG/1.1/DTD/svg11.dtd">
<svg height="100%" style="fill-rule:evenodd;clip-rule:evenodd;stroke-linecap:round;stroke-linejoin:round;" xmlns:xlink="http://www.w3.org/1999/xlink" xmlns="http://www.w3.org/2000/svg" xml:space="preserve" width="100%" xmlns:vectornator="http://vectornator.io" version="1.1" viewBox="0 0 1024 1024">
<metadata>
<vectornator:setting key="DimensionsVisible" value="1"/>
<vectornator:setting key="PencilOnly" value="0"/>
<vectornator:setting key="SnapToPoints" value="0"/>
<vectornator:setting key="OutlineMode" value="0"/>
<vectornator:setting key="CMYKEnabledKey" value="0"/>
<vectornator:setting key="RulersVisible" value="1"/>
<vectornator:setting key="SnapToEdges" value="0"/>
<vectornator:setting key="GuidesVisible" value="1"/>
<vectornator:setting key="DisplayWhiteBackground" value="0"/>
<vectornator:setting key="doHistoryDisabled" value="0"/>
<vectornator:setting key="SnapToGuides" value="1"/>
<vectornator:setting key="TimeLapseWatermarkDisabled" value="0"/>
<vectornator:setting key="Units" value="Pixels"/>
<vectornator:setting key="DynamicGuides" value="1"/>
<vectornator:setting key="IsolateActiveLayer" value="0"/>
<vectornator:setting key="SnapToGrid" value="0"/>
</metadata>
<defs/>
<g id="Layer 1" vectornator:layerName="Layer 1">
<path d="M-5.05029e-06+327.435L564.081+327.435L1024+327.435L1024+696.565L-5.05029e-06+696.565L-5.05029e-06+327.435Z" opacity="1" fill="#18181e"/>
<g opacity="1">
<path d="M41.1034+558.423C36.1225+558.423+31.8406+556.632+28.2578+553.049C24.675+549.466+22.8836+545.184+22.8836+540.204L22.8836+532.994L40.1859+532.994L40.1859+536.402C40.1859+538.849+40.3388+540.225+40.6447+540.531C40.9505+540.837+42.3268+540.99+44.7736+540.99L95.2385+540.99C97.6853+540.99+99.0616+540.837+99.3675+540.531C99.6733+540.225+99.8262+538.849+99.8262+536.402L99.8262+524.474C99.8262+522.027+99.6733+520.673+99.3675+520.411C99.0616+520.149+97.6853+520.018+95.2385+520.018L41.1034+520.018C36.1225+520.018+31.8406+518.204+28.2578+514.578C24.675+510.951+22.8836+506.648+22.8836+501.667L22.8836+482.267C22.8836+477.286+24.675+473.004+28.2578+469.422C31.8406+465.839+36.1225+464.047+41.1034+464.047L99.0398+464.047C104.021+464.047+108.303+465.839+111.885+469.422C115.468+473.004+117.26+477.286+117.26+482.267L117.26+489.476L99.8262+489.476L99.8262+486.068C99.8262+483.622+99.6733+482.245+99.3675+481.94C99.0616+481.634+97.6853+481.481+95.2385+481.481L44.7736+481.481C42.3268+481.481+40.9505+481.634+40.6447+481.94C40.3388+482.245+40.1859+483.622+40.1859+486.068L40.1859+497.997C40.1859+500.443+40.3388+501.798+40.6447+502.06C40.9505+502.322+42.3268+502.453+44.7736+502.453L99.0398+502.453C104.021+502.453+108.303+504.266+111.885+507.893C115.468+511.519+117.26+515.823+117.26+520.804L117.26+540.204C117.26+545.184+115.468+549.466+111.885+553.049C108.303+556.632+104.021+558.423+99.0398+558.423L41.1034+558.423Z" opacity="1" fill="#ffffff"/>
<path d="M149.505+558.423C144.524+558.423+140.242+556.632+136.659+553.049C133.076+549.466+131.285+545.184+131.285+540.204L131.285+464.047L148.587+464.047L148.587+536.402C148.587+538.849+148.74+540.225+149.046+540.531C149.352+540.837+150.728+540.99+153.175+540.99L203.64+540.99C205.999+540.99+207.354+540.837+207.703+540.531C208.053+540.225+208.227+538.849+208.227+536.402L208.227+464.047L225.661+464.047L225.661+540.204C225.661+545.184+223.869+549.466+220.287+553.049C216.704+556.632+212.422+558.423+207.441+558.423L149.505+558.423Z" opacity="1" fill="#ffffff"/>
<path d="M257.906+558.423C252.925+558.423+248.643+556.632+245.06+553.049C241.478+549.466+239.686+545.184+239.686+540.204L239.686+532.994L256.988+532.994L256.988+536.402C256.988+538.849+257.141+540.225+257.447+540.531C257.753+540.837+259.129+540.99+261.576+540.99L312.041+540.99C314.488+540.99+315.864+540.837+316.17+540.531C316.476+540.225+316.629+538.849+316.629+536.402L316.629+524.474C316.629+522.027+316.476+520.673+316.17+520.411C315.864+520.149+314.488+520.018+312.041+520.018L257.906+520.018C252.925+520.018+248.643+518.204+245.06+514.578C241.478+510.951+239.686+506.648+239.686+501.667L239.686+482.267C239.686+477.286+241.478+473.004+245.06+469.422C248.643+465.839+252.925+464.047+257.906+464.047L315.842+464.047C320.823+464.047+325.105+465.839+328.688+469.422C332.271+473.004+334.062+477.286+334.062+482.267L334.062+489.476L316.629+489.476L316.629+486.068C316.629+483.622+316.476+482.245+316.17+481.94C315.864+481.634+314.488+481.481+312.041+481.481L261.576+481.481C259.129+481.481+257.753+481.634+257.447+481.94C257.141+482.245+256.988+483.622+256.988+486.068L256.988+497.997C256.988+500.443+257.141+501.798+257.447+502.06C257.753+502.322+259.129+502.453+261.576+502.453L315.842+502.453C320.823+502.453+325.105+504.266+328.688+507.893C332.271+511.519+334.062+515.823+334.062+520.804L334.062+540.204C334.062+545.184+332.271+549.466+328.688+553.049C325.105+556.632+320.823+558.423+315.842+558.423L257.906+558.423Z" opacity="1" fill="#ffffff"/>
<path d="M348.35+558.423L348.35+464.178L424.375+464.178C429.443+464.178+433.768+465.992+437.351+469.618C440.934+473.245+442.725+477.505+442.725+482.398L442.725+507.827C442.725+512.808+440.934+517.09+437.351+520.673C433.768+524.256+429.443+526.047+424.375+526.047L365.652+526.178L365.652+558.423L348.35+558.423ZM370.239+508.614L420.704+508.614C423.064+508.614+424.418+508.483+424.768+508.221C425.117+507.958+425.292+506.604+425.292+504.157L425.292+486.068C425.292+483.622+425.117+482.245+424.768+481.94C424.418+481.634+423.064+481.481+420.704+481.481L370.239+481.481C367.793+481.481+366.416+481.634+366.111+481.94C365.805+482.245+365.652+483.622+365.652+486.068L365.652+504.157C365.652+506.604+365.805+507.958+366.111+508.221C366.416+508.483+367.793+508.614+370.239+508.614Z" opacity="1" fill="#ffffff"/>
<path d="M452.294+558.423L452.294+464.047L539.199+464.047L539.199+481.481L469.727+481.481L469.727+502.453L525.567+502.453L525.567+520.018L469.727+520.018L469.727+540.99L539.199+540.99L539.199+558.423L452.294+558.423Z" opacity="1" fill="#ffffff"/>
<path d="M552.437+558.423L552.437+464.047L571.444+464.047L629.38+532.994L629.38+464.047L646.813+464.047L646.813+558.423L627.807+558.423L569.74+489.345L569.74+558.423L552.437+558.423Z" opacity="1" fill="#ffffff"/>
<path d="M679.321+558.423C674.34+558.423+670.058+556.632+666.475+553.049C662.892+549.466+661.101+545.184+661.101+540.204L661.101+532.994L678.403+532.994L678.403+536.402C678.403+538.849+678.556+540.225+678.862+540.531C679.168+540.837+680.544+540.99+682.991+540.99L733.456+540.99C735.903+540.99+737.279+540.837+737.585+540.531C737.891+540.225+738.043+538.849+738.043+536.402L738.043+524.474C738.043+522.027+737.891+520.673+737.585+520.411C737.279+520.149+735.903+520.018+733.456+520.018L679.321+520.018C674.34+520.018+670.058+518.204+666.475+514.578C662.892+510.951+661.101+506.648+661.101+501.667L661.101+482.267C661.101+477.286+662.892+473.004+666.475+469.422C670.058+465.839+674.34+464.047+679.321+464.047L737.257+464.047C742.238+464.047+746.52+465.839+750.103+469.422C753.685+473.004+755.477+477.286+755.477+482.267L755.477+489.476L738.043+489.476L738.043+486.068C738.043+483.622+737.891+482.245+737.585+481.94C737.279+481.634+735.903+481.481+733.456+481.481L682.991+481.481C680.544+481.481+679.168+481.634+678.862+481.94C678.556+482.245+678.403+483.622+678.403+486.068L678.403+497.997C678.403+500.443+678.556+501.798+678.862+502.06C679.168+502.322+680.544+502.453+682.991+502.453L737.257+502.453C742.238+502.453+746.52+504.266+750.103+507.893C753.685+511.519+755.477+515.823+755.477+520.804L755.477+540.204C755.477+545.184+753.685+549.466+750.103+553.049C746.52+556.632+742.238+558.423+737.257+558.423L679.321+558.423Z" opacity="1" fill="#ffffff"/>
<path d="M769.24+558.423L769.24+464.047L786.411+464.047L786.411+558.423L769.24+558.423Z" opacity="1" fill="#ffffff"/>
<path d="M815.773+558.423C810.792+558.423+806.51+556.632+802.927+553.049C799.344+549.466+797.553+545.184+797.553+540.204L797.553+482.267C797.553+477.286+799.344+473.004+802.927+469.422C806.51+465.839+810.792+464.047+815.773+464.047L873.709+464.047C878.69+464.047+882.972+465.839+886.554+469.422C890.137+473.004+891.929+477.286+891.929+482.267L891.929+540.204C891.929+545.184+890.137+549.466+886.554+553.049C882.972+556.632+878.69+558.423+873.709+558.423L815.773+558.423ZM819.443+540.99L869.908+540.99C872.267+540.99+873.621+540.837+873.971+540.531C874.321+540.225+874.495+538.849+874.495+536.402L874.495+486.068C874.495+483.622+874.321+482.245+873.971+481.94C873.621+481.634+872.267+481.481+869.908+481.481L819.443+481.481C816.996+481.481+815.62+481.634+815.314+481.94C815.008+482.245+814.855+483.622+814.855+486.068L814.855+536.402C814.855+538.849+815.008+540.225+815.314+540.531C815.62+540.837+816.996+540.99+819.443+540.99Z" opacity="1" fill="#ffffff"/>
<path d="M906.347+558.423L906.347+464.047L925.353+464.047L983.29+532.994L983.29+464.047L1000.72+464.047L1000.72+558.423L981.717+558.423L923.649+489.345L923.649+558.423L906.347+558.423Z" opacity="1" fill="#ffffff"/>
</g>
</g>
</svg>
