<svg width="526" height="526" viewBox="0 0 526 526" fill="none" xmlns="http://www.w3.org/2000/svg">
<path d="M0 52C0 52 123.304 0 263 0C402.696 0 526 52 526 52L511 84C511 84 402.696 32 263 32C123.304 32 15 84 15 84L0 52Z" fill="rgba(255,255,255,0.9)"/>
<path d="M23 97.0021C23 97.0021 48.5624 81.7071 95 69.7481C126.711 61.0177 166.349 55.9334 208.59 50.6313L263 118.002L317.41 50.6313C359.651 55.9334 399.289 61.0177 431 69.7481C477.438 81.7071 503 97.0021 503 97.0021C503 97.0021 486.51 121.93 469 132.002C455.497 141.643 431 151.002 431 151.002C431 151.002 445.52 105.006 336.41 112.002L263 525.002L189.59 112.002C80.48 105.006 95 151.002 95 151.002C95 151.002 70.5031 141.643 57 132.002C39.49 121.93 23 97.0021 23 97.0021Z" fill="rgba(255,255,255,0.9)"/>
</svg>
