<?xml version="1.0" encoding="UTF-8" standalone="no"?> <!-- Created with Vectornator for iOS (http://vectornator.io/) --><!DOCTYPE svg PUBLIC "-//W3C//DTD SVG 1.1//EN" "http://www.w3.org/Graphics/SVG/1.1/DTD/svg11.dtd">
<svg height="100%" style="fill-rule:evenodd;clip-rule:evenodd;stroke-linecap:round;stroke-linejoin:round;" xmlns:xlink="http://www.w3.org/1999/xlink" xmlns="http://www.w3.org/2000/svg" xml:space="preserve" width="100%" xmlns:vectornator="http://vectornator.io" version="1.1" viewBox="0 0 1024 1024">
<metadata>
<vectornator:setting key="DimensionsVisible" value="1"/>
<vectornator:setting key="PencilOnly" value="0"/>
<vectornator:setting key="SnapToPoints" value="0"/>
<vectornator:setting key="OutlineMode" value="0"/>
<vectornator:setting key="CMYKEnabledKey" value="0"/>
<vectornator:setting key="RulersVisible" value="1"/>
<vectornator:setting key="SnapToEdges" value="0"/>
<vectornator:setting key="GuidesVisible" value="1"/>
<vectornator:setting key="DisplayWhiteBackground" value="0"/>
<vectornator:setting key="doHistoryDisabled" value="0"/>
<vectornator:setting key="SnapToGuides" value="1"/>
<vectornator:setting key="TimeLapseWatermarkDisabled" value="0"/>
<vectornator:setting key="Units" value="Pixels"/>
<vectornator:setting key="DynamicGuides" value="1"/>
<vectornator:setting key="IsolateActiveLayer" value="0"/>
<vectornator:setting key="SnapToGrid" value="0"/>
</metadata>
<defs/>
<g id="Layer 1" vectornator:layerName="Layer 1">
<path d="M-5.05029e-06+327.435L564.081+327.435L1024+327.435L1024+696.565L-5.05029e-06+696.565L-5.05029e-06+327.435Z" opacity="1" fill="#18181e"/>
<g opacity="1">
<path d="M49.3507+558.423L49.3507+481.481L10.8139+481.481L10.8139+464.047L105.19+464.047L105.19+481.481L66.7841+481.481L66.7841+558.423L49.3507+558.423Z" opacity="1" fill="#ffffff"/>
<path d="M132.978+558.423C127.997+558.423+123.715+556.632+120.133+553.049C116.55+549.466+114.759+545.184+114.759+540.204L114.759+482.267C114.759+477.286+116.55+473.004+120.133+469.422C123.715+465.839+127.997+464.047+132.978+464.047L190.915+464.047C195.896+464.047+200.177+465.839+203.76+469.422C207.343+473.004+209.134+477.286+209.134+482.267L209.134+540.204C209.134+545.184+207.343+549.466+203.76+553.049C200.177+556.632+195.896+558.423+190.915+558.423L132.978+558.423ZM136.648+540.99L187.113+540.99C189.473+540.99+190.827+540.837+191.177+540.531C191.526+540.225+191.701+538.849+191.701+536.402L191.701+486.068C191.701+483.622+191.526+482.245+191.177+481.94C190.827+481.634+189.473+481.481+187.113+481.481L136.648+481.481C134.202+481.481+132.825+481.634+132.52+481.94C132.214+482.245+132.061+483.622+132.061+486.068L132.061+536.402C132.061+538.849+132.214+540.225+132.52+540.531C132.825+540.837+134.202+540.99+136.648+540.99Z" opacity="1" fill="#ffffff"/>
<path d="M223.553+558.423L223.553+464.047L242.559+464.047L300.496+532.994L300.496+464.047L317.929+464.047L317.929+558.423L298.923+558.423L240.855+489.345L240.855+558.423L223.553+558.423Z" opacity="1" fill="#ffffff"/>
<path d="M332.61+558.423L332.61+464.047L351.616+464.047L409.552+532.994L409.552+464.047L426.986+464.047L426.986+558.423L407.979+558.423L349.912+489.345L349.912+558.423L332.61+558.423Z" opacity="1" fill="#ffffff"/>
<path d="M441.928+558.423L441.928+464.047L528.833+464.047L528.833+481.481L459.362+481.481L459.362+502.453L515.201+502.453L515.201+520.018L459.362+520.018L459.362+540.99L528.833+540.99L528.833+558.423L441.928+558.423Z" opacity="1" fill="#ffffff"/>
<path d="M542.334+558.423L542.334+482.267C542.334+477.286+544.125+473.004+547.708+469.422C551.291+465.839+555.573+464.047+560.554+464.047L618.359+464.047C623.427+464.047+627.753+465.839+631.336+469.422C634.918+473.004+636.71+477.286+636.71+482.267L636.71+558.423L619.277+558.423L619.277+526.703L559.636+526.703L559.636+558.423L542.334+558.423ZM559.636+509.4L619.277+509.4L619.277+486.068C619.277+483.622+619.102+482.245+618.752+481.94C618.403+481.634+617.048+481.481+614.689+481.481L564.224+481.481C561.777+481.481+560.401+481.634+560.095+481.94C559.789+482.245+559.636+483.622+559.636+486.068L559.636+509.4Z" opacity="1" fill="#ffffff"/>
<path d="M669.61+558.423C664.629+558.423+660.348+556.632+656.765+553.049C653.182+549.466+651.391+545.184+651.391+540.204L651.391+464.047L668.693+464.047L668.693+536.402C668.693+538.849+668.846+540.225+669.152+540.531C669.457+540.837+670.834+540.99+673.281+540.99L723.745+540.99C726.105+540.99+727.459+540.837+727.809+540.531C728.158+540.225+728.333+538.849+728.333+536.402L728.333+464.047L745.766+464.047L745.766+540.204C745.766+545.184+743.975+549.466+740.392+553.049C736.809+556.632+732.528+558.423+727.547+558.423L669.61+558.423Z" opacity="1" fill="#ffffff"/>
</g>
</g>
</svg>
